# Blender 5.0.1
# www.blender.org
mtllib Coche_cofre.mtl
g clearcoat.001_Malla
v -0.533323 -0.024929 0.647504
v -0.549720 -0.015754 0.641819
v -0.506792 -0.041468 0.766174
v -0.489820 -0.051156 0.771427
v -0.774578 0.005201 0.657324
v -0.851043 0.008346 0.622672
v -0.835987 -0.015268 0.718560
v -0.755157 -0.019334 0.756595
v -0.411936 -0.114785 0.977250
v -0.430150 -0.107348 0.971487
v -0.360798 -0.172441 1.129983
v -0.347716 -0.175268 1.129164
v -0.883960 0.030043 0.320315
v -0.817414 0.032911 0.337377
v -0.824831 0.030068 0.216006
v -0.890827 0.024935 0.209725
v -0.644456 0.022245 0.299412
v -0.618700 0.012510 0.404266
v -0.605008 0.006500 0.411165
v -0.634376 0.017669 0.302422
v -0.514870 -0.038376 0.763603
v -0.675666 -0.008351 0.699786
v -0.652173 -0.034264 0.799793
v -0.478901 -0.066190 0.863382
v -0.557799 -0.012679 0.639202
v -0.701476 0.012823 0.588594
v -0.678613 0.019320 0.154356
v -0.670299 0.017620 0.160147
v -0.671837 0.017570 0.153494
v -0.680194 0.019114 0.147006
v -0.874730 0.030209 0.426669
v -0.805149 0.030311 0.452049
v -0.582424 -0.001919 0.533842
v -0.568173 -0.009051 0.539740
v -0.950362 0.021620 0.397079
v -0.945288 0.017121 0.495931
v -0.865116 0.025844 0.528974
v -0.793933 0.024092 0.555859
v -0.470760 -0.069056 0.866006
v -0.451692 -0.079033 0.872898
v -0.438376 -0.104815 0.968870
v -0.619162 -0.069058 0.902565
v 0.003538 -0.007375 0.734728
v 0.003538 -0.006020 0.729880
v -0.162235 -0.007796 0.714973
v -0.164988 -0.009257 0.719763
v -0.336180 -0.123386 0.987776
v -0.374160 -0.122237 0.984361
v -0.310922 -0.178454 1.128697
v -0.281387 -0.178027 1.129474
v -0.374320 -0.089726 0.885459
v -0.415134 -0.088444 0.881115
v -0.247257 -0.112799 0.997420
v -0.212575 -0.169678 1.134039
v -0.581407 0.011873 0.201232
v -0.586907 0.012118 0.197274
v -0.584985 0.011898 0.204319
v -0.578289 0.011639 0.207251
v -0.543367 0.007490 0.331527
v -0.548450 0.007656 0.329991
v -0.506076 -0.003336 0.452498
v -0.500775 -0.003155 0.452367
v -0.410390 -0.062251 0.783704
v -0.453502 -0.061153 0.778903
v 0.003538 -0.098892 1.006966
v 0.003538 -0.061674 0.908466
v -0.174189 -0.068463 0.905669
v -0.163413 -0.104924 1.004128
v -0.496166 -0.035173 0.658579
v -0.532026 -0.017745 0.551112
v -0.637885 0.014007 0.173689
v -0.635950 0.013784 0.180957
v -0.569455 -0.001539 0.425385
v -0.597988 0.009162 0.313855
v 0.003538 -0.036933 0.830889
v 0.003538 -0.015901 0.764943
v -0.177332 -0.018314 0.749942
v -0.177514 -0.040406 0.818336
v -0.143898 -0.162847 1.137983
v 0.003538 -0.157373 1.142793
v -0.271998 -0.077507 0.897525
v -0.349514 -0.029003 0.693981
v -0.287245 -0.047749 0.798248
v -0.229439 -0.014470 0.721958
v -0.288654 -0.002951 0.633270
v -0.895049 0.007683 0.013597
v -0.893714 0.014639 0.075808
v -0.833838 0.021278 0.065091
v -0.835592 0.016042 0.001325
v -0.952639 0.020939 0.304080
v -0.952319 0.016058 0.206179
v -0.953028 0.003539 0.086485
v -0.952479 -0.003228 0.026203
v -0.813799 -0.048110 0.823870
v -0.729925 -0.052220 0.860053
v -0.744399 -0.157597 1.076820
v -0.671956 -0.183801 1.149648
v -0.690536 -0.122811 1.015044
v -0.768389 -0.119586 0.987866
v -0.296961 -0.237807 1.275388
v -0.285655 -0.240270 1.275990
v -0.245648 -0.244103 1.277749
v -0.223772 -0.243863 1.278538
v -0.169522 -0.239547 1.280169
v -0.115147 -0.235867 1.281837
v 0.003538 -0.232655 1.285606
v -0.247268 -0.297107 1.386969
v -0.240317 -0.296934 1.383306
v -0.202823 -0.296946 1.375723
v -0.180556 -0.297471 1.377513
v -0.139998 -0.298191 1.380596
v -0.094750 -0.299092 1.384130
v 0.003538 -0.301070 1.391321
v -0.948572 -0.007878 0.014782
v -0.892471 0.002063 0.002154
v -0.834535 0.010028 -0.010021
v -0.794233 0.014602 -0.018000
v -0.603192 -0.206623 1.203141
v -0.490027 -0.244681 1.277645
v -0.503038 -0.217237 1.227731
v -0.590440 0.000866 0.530738
v -0.626725 0.014834 0.400870
v -0.737814 0.027184 0.362174
v -0.718447 0.021228 0.482778
v -0.652315 0.024390 0.295826
v -0.744287 0.028529 0.241441
v -0.257781 -0.295482 1.385429
v -0.305777 -0.236433 1.274142
v -0.415582 -0.263309 1.315997
v -0.369414 -0.170769 1.128858
v -0.567936 -0.137628 1.058426
v -0.935975 0.001670 0.582234
v -0.922889 -0.020011 0.673596
v -0.900937 -0.053072 0.781868
v -0.838890 -0.119587 0.963414
v -0.791791 -0.138536 1.019951
v -0.687277 0.020082 0.141612
v -0.735085 0.023528 0.098640
v -0.737161 0.023767 0.103211
v -0.685674 0.020345 0.149386
v -0.998343 -0.433987 0.774966
v -1.002900 -0.437712 0.818983
v -0.989933 -0.432818 0.771893
v -0.252381 -0.296193 1.386562
v -0.553648 -0.013919 0.640549
v -0.510723 -0.039607 0.764980
v -0.474726 -0.067339 0.864704
v -0.434218 -0.105903 0.970230
v -0.365150 -0.171554 1.129854
v -0.622604 0.013922 0.402506
v -0.586334 -0.000271 0.532303
v -0.683731 0.019687 0.144311
v -0.682144 0.019934 0.151860
v -0.648430 0.023694 0.297955
v -0.301358 -0.236989 1.274976
v -0.605370 -0.205910 1.201463
v -0.753004 0.018823 0.066399
v -0.733130 0.018137 0.095270
v -0.733132 0.004656 0.095257
v -0.752992 0.005313 0.066398
v -0.687884 0.014680 0.136755
v -0.687890 0.001218 0.136744
v -0.680928 0.013771 0.142141
v -0.672626 0.012291 0.148587
v -0.672640 -0.001177 0.148571
v -0.680935 0.000307 0.142129
v -0.638793 0.008853 0.168707
v -0.584303 0.006903 0.192661
v -0.584299 -0.006621 0.192648
v -0.638802 -0.004627 0.168694
v -0.573389 0.006319 0.205299
v -0.538384 0.002070 0.332606
v -0.538378 -0.011429 0.332596
v -0.573378 -0.007204 0.205291
v 0.003538 -0.010079 0.724503
v 0.003538 -0.023615 0.724487
v -0.160113 -0.025660 0.710501
v -0.160116 -0.012145 0.710512
v -0.251516 0.001569 0.612795
v -0.211367 -0.007783 0.681532
v -0.211376 -0.021303 0.681500
v -0.251511 -0.011952 0.612782
v -0.431854 -0.010027 0.520599
v -0.299155 0.001803 0.570788
v -0.299145 -0.011729 0.570776
v -0.431834 -0.023556 0.520594
v -0.496713 -0.008494 0.451469
v -0.483753 -0.010452 0.476032
v -0.483752 -0.023965 0.476013
v -0.496709 -0.021997 0.451454
v -0.781914 0.016054 -0.010723
v -0.768442 0.018289 0.034991
v -0.684415 0.014309 0.139437
v -0.684420 0.000844 0.139427
v -0.786508 0.015475 -0.017048
v -0.577349 -0.006916 0.197687
v -0.577359 0.006609 0.197695
v -0.199860 -0.005528 0.699249
v -0.203108 -0.006951 0.703629
v -0.184689 -0.008399 0.713075
v -0.181918 -0.006916 0.708271
v -0.434967 -0.005703 0.525002
v -0.437543 -0.006746 0.529081
v -0.304928 0.004903 0.579182
v -0.302220 0.006040 0.575218
v -0.476717 -0.007567 0.500678
v -0.455406 -0.007599 0.518616
v -0.452759 -0.006590 0.514487
v -0.474005 -0.006645 0.496394
v -0.196952 -0.009783 0.695111
v -0.179624 -0.011244 0.703916
v -0.179629 -0.024764 0.703901
v -0.196962 -0.023308 0.695088
v -0.273686 0.002615 0.588202
v -0.273676 -0.010915 0.588192
v -0.470959 -0.011119 0.491971
v -0.449527 -0.010957 0.510169
v -0.449514 -0.024488 0.510161
v -0.470953 -0.024646 0.491958
v -0.754140 0.022722 0.066950
v -0.757322 0.024205 0.068470
v -0.733622 0.021995 0.096215
v -0.687720 0.018498 0.137980
v -0.680726 0.017569 0.143381
v -0.672403 0.016083 0.149839
v -0.638554 0.012660 0.169984
v -0.584975 0.010760 0.193875
v -0.574668 0.010196 0.205818
v -0.539671 0.005974 0.332374
v 0.003538 -0.006406 0.725976
v -0.160678 -0.008420 0.711760
v -0.299980 0.005475 0.571962
v -0.432704 -0.006313 0.521785
v -0.497882 -0.004623 0.451748
v -0.486712 -0.005782 0.480239
v -0.484571 -0.006685 0.477157
v -0.951503 -0.005322 0.016160
v -0.952448 -0.003993 0.019972
v -0.895214 0.006919 0.007297
v -0.894626 0.005344 0.003494
v -0.835589 0.013829 -0.008672
v -0.835790 0.015487 -0.004854
v -0.794182 0.020045 -0.012800
v -0.794242 0.018500 -0.016667
v -0.783160 0.019931 -0.010137
v -0.786720 0.021404 -0.008406
v -0.773297 0.023626 0.037242
v -0.769726 0.022183 0.035568
v -0.684233 0.018124 0.140676
v -0.787285 0.019347 -0.015835
v -0.578405 0.010462 0.198621
v -0.197728 -0.006069 0.696289
v -0.180229 -0.007528 0.705142
v -0.214544 -0.003572 0.685524
v -0.212225 -0.004088 0.682651
v -0.252576 0.005273 0.613585
v -0.255616 0.005960 0.615759
v -0.274526 0.006294 0.589328
v -0.471791 -0.007374 0.493153
v -0.450409 -0.007231 0.511333
v -0.789528 0.020897 -0.012263
v -0.276847 0.006881 0.592469
v -0.279592 0.005732 0.596401
v -0.259532 0.004858 0.618411
v -0.489561 -0.006609 0.484610
v -0.328772 -0.006224 0.618536
v -0.217767 -0.004970 0.689788
v -0.470098 -0.018180 0.570113
v -0.447318 -0.038053 0.673784
v -0.792408 0.020805 -0.007243
v -0.777598 0.023293 0.038861
v -0.761290 0.024124 0.070026
v 0.540399 -0.024929 0.647504
v 0.496897 -0.051157 0.771427
v 0.513868 -0.041468 0.766175
v 0.556797 -0.015754 0.641819
v 0.781655 0.005201 0.657324
v 0.762234 -0.019333 0.756596
v 0.843064 -0.015267 0.718560
v 0.858119 0.008346 0.622672
v 0.419013 -0.114785 0.977250
v 0.354793 -0.175267 1.129164
v 0.367875 -0.172441 1.129983
v 0.437227 -0.107348 0.971487
v 0.891037 0.030043 0.320315
v 0.897904 0.024934 0.209725
v 0.831907 0.030068 0.216006
v 0.824491 0.032911 0.337377
v 0.651533 0.022245 0.299412
v 0.641453 0.017669 0.302422
v 0.612084 0.006500 0.411165
v 0.625777 0.012510 0.404266
v 0.521947 -0.038375 0.763603
v 0.485977 -0.066190 0.863383
v 0.659249 -0.034264 0.799793
v 0.682743 -0.008351 0.699786
v 0.564876 -0.012678 0.639202
v 0.708552 0.012823 0.588595
v 0.685690 0.019321 0.154356
v 0.687270 0.019114 0.147006
v 0.678913 0.017570 0.153494
v 0.677376 0.017620 0.160147
v 0.812226 0.030311 0.452049
v 0.881806 0.030209 0.426669
v 0.589501 -0.001919 0.533843
v 0.575249 -0.009050 0.539740
v 0.957439 0.021620 0.397079
v 0.872192 0.025844 0.528975
v 0.952365 0.017052 0.495932
v 0.801009 0.024093 0.555859
v 0.477836 -0.069055 0.866007
v 0.458768 -0.079033 0.872898
v 0.626239 -0.069058 0.902565
v 0.445453 -0.104815 0.968870
v 0.172065 -0.009256 0.719763
v 0.169312 -0.007797 0.714973
v 0.343257 -0.123386 0.987777
v 0.288464 -0.178027 1.129475
v 0.317999 -0.178454 1.128697
v 0.381236 -0.122237 0.984361
v 0.422210 -0.088444 0.881116
v 0.381396 -0.089726 0.885459
v 0.254334 -0.112799 0.997420
v 0.219652 -0.169678 1.134039
v 0.588484 0.011873 0.201232
v 0.585366 0.011639 0.207251
v 0.592061 0.011898 0.204319
v 0.593984 0.012118 0.197274
v 0.550443 0.007490 0.331527
v 0.507851 -0.003155 0.452367
v 0.513153 -0.003336 0.452497
v 0.555527 0.007656 0.329991
v 0.417467 -0.062251 0.783704
v 0.460578 -0.061152 0.778903
v 0.170490 -0.104924 1.004128
v 0.181265 -0.068464 0.905670
v 0.539103 -0.017745 0.551112
v 0.503243 -0.035173 0.658579
v 0.644962 0.014007 0.173689
v 0.643027 0.013784 0.180958
v 0.605065 0.009162 0.313855
v 0.576532 -0.001539 0.425385
v 0.184590 -0.040406 0.818336
v 0.184409 -0.018314 0.749942
v 0.150974 -0.162847 1.137983
v 0.279075 -0.077507 0.897525
v 0.356590 -0.029003 0.693981
v 0.295730 -0.002951 0.633270
v 0.236516 -0.014470 0.721958
v 0.294321 -0.047749 0.798248
v 0.902125 0.007683 0.013597
v 0.842669 0.016042 0.001325
v 0.840914 0.021279 0.065091
v 0.900790 0.014639 0.075808
v 0.959716 0.020940 0.304080
v 0.959395 0.016058 0.206179
v 0.960105 0.003539 0.086486
v 0.959555 -0.003227 0.026203
v 0.820876 -0.048111 0.823871
v 0.737002 -0.052219 0.860053
v 0.751476 -0.157597 1.076820
v 0.775465 -0.119586 0.987866
v 0.697613 -0.122811 1.015044
v 0.679033 -0.183801 1.149648
v 0.304037 -0.237807 1.275388
v 0.292731 -0.240270 1.275991
v 0.252724 -0.244103 1.277750
v 0.230848 -0.243864 1.278538
v 0.176599 -0.239547 1.280169
v 0.122224 -0.235867 1.281838
v 0.254344 -0.297107 1.386969
v 0.247394 -0.296934 1.383307
v 0.209899 -0.296946 1.375723
v 0.187632 -0.297471 1.377513
v 0.147074 -0.298191 1.380596
v 0.101827 -0.299092 1.384130
v 0.955649 -0.007878 0.014781
v 0.899547 0.002063 0.002154
v 0.841612 0.010028 -0.010021
v 0.801309 0.014602 -0.018000
v 0.610269 -0.206622 1.203141
v 0.510115 -0.217236 1.227731
v 0.497103 -0.244681 1.277645
v 0.725523 0.021228 0.482779
v 0.744891 0.027184 0.362175
v 0.633801 0.014833 0.400870
v 0.597517 0.000866 0.530738
v 0.751364 0.028529 0.241441
v 0.659392 0.024390 0.295826
v 0.422659 -0.263310 1.315997
v 0.312806 -0.236421 1.274124
v 0.264857 -0.295482 1.385429
v 0.575012 -0.137628 1.058426
v 0.376490 -0.170770 1.128858
v 0.943051 0.001670 0.582234
v 0.929965 -0.020011 0.673596
v 0.908014 -0.053072 0.781869
v 0.845966 -0.119587 0.963414
v 0.798868 -0.138536 1.019951
v 0.694354 0.020082 0.141612
v 0.692751 0.020345 0.149386
v 0.744238 0.023767 0.103211
v 0.742162 0.023528 0.098640
v 0.259458 -0.296193 1.386562
v 0.560725 -0.013919 0.640549
v 0.517800 -0.039607 0.764981
v 0.481802 -0.067339 0.864704
v 0.441294 -0.105903 0.970230
v 0.372227 -0.171554 1.129854
v 0.629680 0.013922 0.402507
v 0.593410 -0.000271 0.532303
v 0.690808 0.019687 0.144311
v 0.689221 0.019934 0.151860
v 0.655507 0.023695 0.297955
v 0.308433 -0.236990 1.274976
v 0.612527 -0.205883 1.201401
v 0.760081 0.018823 0.066399
v 0.760069 0.005313 0.066398
v 0.740209 0.004656 0.095258
v 0.740207 0.018137 0.095270
v 0.694967 0.001218 0.136744
v 0.694961 0.014679 0.136755
v 0.688004 0.013771 0.142141
v 0.688011 0.000307 0.142129
v 0.679717 -0.001176 0.148571
v 0.679703 0.012291 0.148588
v 0.645869 0.008853 0.168707
v 0.645879 -0.004627 0.168694
v 0.591376 -0.006621 0.192648
v 0.591380 0.006903 0.192661
v 0.580465 0.006319 0.205299
v 0.580455 -0.007203 0.205292
v 0.545454 -0.011428 0.332596
v 0.545461 0.002070 0.332606
v 0.167192 -0.012145 0.710512
v 0.167190 -0.025660 0.710501
v 0.258593 0.001569 0.612795
v 0.258587 -0.011952 0.612782
v 0.218453 -0.021303 0.681500
v 0.218443 -0.007783 0.681532
v 0.438930 -0.010027 0.520599
v 0.438910 -0.023556 0.520594
v 0.306222 -0.011729 0.570776
v 0.306231 0.001803 0.570787
v 0.503790 -0.008495 0.451470
v 0.503786 -0.021996 0.451454
v 0.490829 -0.023965 0.476013
v 0.490830 -0.010452 0.476032
v 0.788991 0.016054 -0.010723
v 0.775519 0.018289 0.034992
v 0.691492 0.014310 0.139437
v 0.691497 0.000844 0.139427
v 0.793585 0.015475 -0.017048
v 0.793704 0.002592 -0.016953
v 0.584426 -0.006916 0.197687
v 0.584435 0.006609 0.197695
v 0.206937 -0.005528 0.699249
v 0.188994 -0.006916 0.708272
v 0.191765 -0.008399 0.713075
v 0.210184 -0.006951 0.703629
v 0.442044 -0.005703 0.525002
v 0.309297 0.006039 0.575218
v 0.312005 0.004903 0.579182
v 0.444620 -0.006746 0.529081
v 0.483793 -0.007567 0.500678
v 0.481082 -0.006645 0.496393
v 0.459836 -0.006590 0.514487
v 0.462483 -0.007598 0.518616
v 0.204029 -0.009783 0.695111
v 0.204039 -0.023308 0.695088
v 0.186705 -0.024764 0.703901
v 0.186700 -0.011244 0.703916
v 0.280762 0.002615 0.588202
v 0.280753 -0.010915 0.588192
v 0.478035 -0.011119 0.491971
v 0.478030 -0.024646 0.491958
v 0.456590 -0.024488 0.510161
v 0.456603 -0.010957 0.510169
v 0.761216 0.022722 0.066950
v 0.740698 0.021995 0.096215
v 0.764398 0.024205 0.068470
v 0.694797 0.018498 0.137980
v 0.687803 0.017568 0.143381
v 0.679479 0.016084 0.149839
v 0.645630 0.012661 0.169984
v 0.592052 0.010760 0.193876
v 0.581745 0.010196 0.205819
v 0.546748 0.005975 0.332374
v 0.167755 -0.008420 0.711761
v 0.439781 -0.006314 0.521785
v 0.307056 0.005475 0.571962
v 0.504959 -0.004623 0.451748
v 0.491648 -0.006685 0.477157
v 0.493788 -0.005782 0.480239
v 0.958580 -0.005323 0.016160
v 0.901703 0.005344 0.003494
v 0.902291 0.006919 0.007297
v 0.959525 -0.003993 0.019971
v 0.842665 0.013829 -0.008672
v 0.801319 0.018500 -0.016666
v 0.801259 0.020045 -0.012800
v 0.842867 0.015487 -0.004854
v 0.790237 0.019931 -0.010137
v 0.776803 0.022183 0.035568
v 0.780374 0.023626 0.037242
v 0.793796 0.021404 -0.008405
v 0.691310 0.018125 0.140676
v 0.794362 0.019347 -0.015834
v 0.585482 0.010462 0.198621
v 0.204804 -0.006069 0.696289
v 0.187305 -0.007528 0.705142
v 0.221620 -0.003572 0.685524
v 0.262693 0.005960 0.615759
v 0.259653 0.005273 0.613585
v 0.219302 -0.004088 0.682651
v 0.281603 0.006294 0.589328
v 0.478868 -0.007374 0.493153
v 0.457486 -0.007231 0.511333
v 0.796604 0.020898 -0.012263
v 0.283923 0.006881 0.592469
v 0.266609 0.004858 0.618411
v 0.286668 0.005732 0.596401
v 0.496638 -0.006609 0.484610
v 0.335848 -0.006224 0.618536
v 0.224844 -0.004970 0.689788
v 0.477174 -0.018179 0.570113
v 0.454395 -0.038053 0.673785
v 0.799484 0.020805 -0.007242
v 0.784675 0.023293 0.038861
v 0.768367 0.024124 0.070026
vn 0.4461 0.8930 0.0597
vn 0.3621 0.9271 0.0965
vn 0.3708 0.9278 0.0400
vn 0.4533 0.8913 0.0052
vn -0.1449 0.9459 0.2903
vn -0.0311 0.9599 0.2784
vn -0.0064 0.9772 0.2123
vn -0.1203 0.9668 0.2256
vn 0.2005 0.9293 0.3101
vn 0.1532 0.9332 0.3250
vn 0.2225 0.9405 0.2568
vn 0.2820 0.9293 0.2387
vn -0.0242 0.9990 -0.0373
vn -0.1099 0.9926 -0.0523
vn -0.0865 0.9961 -0.0165
vn 0.0116 0.9999 0.0002
vn 0.3089 0.9509 0.0169
vn 0.3274 0.9444 -0.0306
vn 0.3905 0.9189 -0.0554
vn 0.3728 0.9279 -0.0035
vn 0.1699 0.9697 0.1753
vn 0.0765 0.9767 0.2003
vn 0.0537 0.9609 0.2718
vn 0.1296 0.9568 0.2605
vn 0.1969 0.9754 0.0993
vn 0.1024 0.9879 0.1167
vn 0.2917 0.9288 -0.2285
vn 0.3470 0.9047 -0.2472
vn 0.2337 0.9694 -0.0758
vn 0.1944 0.9793 -0.0567
vn -0.0739 0.9967 0.0326
vn 0.0370 0.9986 0.0382
vn 0.4217 0.9067 -0.0128
vn 0.3403 0.9401 0.0217
vn -0.0925 0.9877 0.1260
vn -0.1253 0.9919 0.0221
vn -0.1490 0.9836 0.1019
vn 0.0239 0.9922 0.1224
vn 0.3856 0.9111 0.1461
vn 0.3090 0.9343 0.1780
vn 0.0937 0.9388 0.3315
vn 0.0274 0.9339 0.3566
vn -0.0000 0.9953 0.0966
vn 0.0049 0.9974 0.0715
vn -0.0423 0.9619 0.2701
vn 0.0001 0.9627 0.2705
vn 0.0314 0.9285 0.3700
vn -0.0819 0.9086 0.4095
vn -0.0775 0.9286 0.3630
vn 0.0634 0.9463 0.3169
vn -0.0751 0.9476 0.3105
vn 0.0957 0.9618 0.2567
vn -0.1230 0.8947 0.4293
vn -0.1323 0.9142 0.3831
vn 0.0260 0.9993 0.0257
vn 0.1935 0.9802 -0.0415
vn 0.1715 0.9800 -0.1011
vn 0.1159 0.9842 -0.1335
vn -0.0249 0.9941 0.1054
vn 0.1986 0.9801 0.0077
vn 0.2017 0.9795 0.0003
vn 0.0114 0.9981 0.0600
vn -0.0728 0.9628 0.2602
vn 0.1167 0.9740 0.1941
vn -0.0000 0.9445 0.3284
vn -0.0783 0.9404 0.3310
vn -0.0795 0.9219 0.3793
vn 0.0009 0.9269 0.3754
vn 0.1122 0.9821 0.1515
vn 0.0839 0.9895 0.1180
vn 0.0804 0.9968 -0.0008
vn 0.1613 0.9705 -0.1792
vn 0.1179 0.9924 0.0338
vn 0.0939 0.9923 0.0806
vn -0.0002 0.9574 0.2888
vn -0.0624 0.9544 0.2918
vn -0.0771 0.9483 0.3080
vn -0.0002 0.9525 0.3046
vn -0.0790 0.8984 0.4321
vn 0.0009 0.9026 0.4305
vn -0.1333 0.9338 0.3321
vn -0.1533 0.9549 0.2541
vn -0.1422 0.9450 0.2944
vn -0.1304 0.9534 0.2721
vn -0.1589 0.9633 0.2165
vn -0.0883 0.9937 -0.0691
vn -0.1317 0.9885 -0.0741
vn -0.1799 0.9780 -0.1055
vn -0.1598 0.9826 -0.0948
vn -0.1242 0.9918 -0.0305
vn -0.2012 0.9739 -0.1054
vn -0.1445 0.9876 -0.0618
vn -0.2074 0.9717 -0.1131
vn -0.1666 0.9132 0.3719
vn -0.0626 0.9250 0.3747
vn -0.0700 0.9052 0.4192
vn -0.1283 0.8973 0.4223
vn -0.1077 0.9011 0.4200
vn -0.0371 0.9083 0.4167
vn 0.1565 0.9128 0.3773
vn 0.1241 0.9123 0.3902
vn 0.0227 0.9025 0.4302
vn -0.0582 0.8842 0.4635
vn -0.0782 0.8717 0.4837
vn -0.0547 0.8674 0.4945
vn -0.0000 0.8647 0.5022
vn 0.1617 0.8992 0.4065
vn 0.1347 0.8972 0.4205
vn 0.0252 0.8840 0.4668
vn -0.0305 0.8662 0.4988
vn -0.0312 0.8537 0.5199
vn -0.0282 0.8450 0.5339
vn -0.0000 0.8395 0.5433
vn -0.0197 0.9014 0.4325
vn -0.0318 0.8723 0.4879
vn -0.0203 0.8885 0.4584
vn 0.1940 0.9796 0.0518
vn 0.1402 0.9882 0.0624
vn 0.0780 0.9965 0.0304
vn 0.1181 0.9921 0.0422
vn 0.1307 0.9914 -0.0113
vn 0.0508 0.9985 -0.0218
vn 0.0065 0.8846 0.4664
vn 0.0069 0.8982 0.4396
vn -0.0304 0.8747 0.4837
vn -0.0065 0.9132 0.4075
vn 0.0499 0.9245 0.3779
vn -0.1841 0.9586 0.2170
vn -0.1996 0.9395 0.2785
vn -0.2240 0.9091 0.3513
vn -0.1654 0.8904 0.4241
vn -0.1463 0.8948 0.4218
vn 0.2204 0.9621 -0.1608
vn 0.0688 0.9973 -0.0259
vn 0.1263 0.9906 -0.0517
vn 0.2743 0.9325 -0.2349
vn 0.1114 -0.9911 -0.0723
vn 0.3214 0.9399 0.1156
vn 0.3400 0.9392 0.0482
vn 0.1983 0.9382 0.2836
vn 0.2664 0.9420 0.2039
vn 0.1323 0.9296 0.3440
vn 0.3213 0.9468 0.0187
vn 0.2681 0.9630 0.0269
vn 0.1904 0.9792 -0.0700
vn 0.3084 0.9197 -0.2431
vn 0.2655 0.9638 -0.0258
vn 0.0829 0.9086 0.4093
vn 0.0934 0.8959 0.4343
vn 0.7529 0.0005 -0.6582
vn 0.8579 0.0008 -0.5138
vn 0.8505 0.1579 -0.5017
vn 0.7539 0.1275 -0.6445
vn 0.6479 0.1070 -0.7542
vn 0.6430 0.0004 -0.7659
vn 0.5596 0.0004 -0.8287
vn 0.6131 0.0004 -0.7900
vn 0.6205 0.1081 -0.7767
vn 0.5740 0.1126 -0.8111
vn 0.4995 0.0009 -0.8663
vn 0.4555 0.0005 -0.8902
vn 0.4652 0.1284 -0.8759
vn 0.4948 0.1704 -0.8521
vn 0.9542 0.0007 -0.2993
vn 0.9314 0.0009 -0.3640
vn 0.9191 0.1685 -0.3562
vn 0.9463 0.1480 -0.2876
vn 0.0003 0.1934 -0.9811
vn -0.0000 0.0011 -1.0000
vn 0.2030 0.0009 -0.9792
vn 0.2009 0.1710 -0.9646
vn 0.7766 0.0010 -0.6300
vn 0.8102 0.0009 -0.5862
vn 0.8026 0.1734 -0.5708
vn 0.7847 0.1770 -0.5940
vn 0.4587 0.0011 -0.8886
vn 0.4357 0.0010 -0.9001
vn 0.4131 0.1829 -0.8921
vn 0.4472 0.1845 -0.8752
vn 0.8342 0.0008 -0.5514
vn 0.9152 0.0007 -0.4031
vn 0.9107 0.1494 -0.3851
vn 0.8313 0.1643 -0.5310
vn 0.6123 0.0004 -0.7906
vn 0.6171 0.1104 -0.7791
vn 0.7494 0.1696 -0.6400
vn 0.7602 0.0010 -0.6497
vn -0.0606 0.9608 0.2707
vn 0.0293 0.9964 0.0800
vn 0.0264 0.9938 0.1081
vn -0.0824 0.9611 0.2635
vn -0.1526 0.9719 0.1794
vn -0.0620 0.9981 -0.0046
vn -0.0681 0.9977 0.0014
vn -0.1419 0.9766 0.1617
vn -0.0356 0.9993 0.0116
vn 0.0102 0.9998 0.0179
vn -0.0958 0.9855 0.1398
vn -0.1359 0.9780 0.1580
vn 0.3853 0.0010 -0.9228
vn 0.5689 0.0011 -0.8224
vn 0.5786 0.1821 -0.7950
vn 0.3908 0.1753 -0.9036
vn 0.6584 0.0010 -0.7527
vn 0.6463 0.1821 -0.7411
vn 0.5809 0.0010 -0.8139
vn 0.7162 0.0010 -0.6979
vn 0.7087 0.1801 -0.6821
vn 0.5656 0.1857 -0.8035
vn 0.6072 0.6190 -0.4982
vn 0.6229 0.6873 -0.3737
vn 0.1513 0.9842 -0.0925
vn 0.5652 0.5541 -0.6111
vn 0.5243 0.5651 -0.6369
vn 0.5689 0.5419 -0.6187
vn 0.3767 0.6965 -0.6107
vn 0.3992 0.6287 -0.6673
vn 0.7168 0.6738 -0.1796
vn 0.6826 0.6882 -0.2458
vn 0.1391 0.7803 -0.6097
vn 0.0003 0.8148 -0.5797
vn 0.2211 0.7840 -0.5801
vn 0.2615 0.7649 -0.5887
vn 0.0763 0.9969 0.0189
vn 0.5885 0.7360 -0.3345
vn 0.7110 0.6584 -0.2468
vn -0.2124 0.9418 -0.2606
vn -0.2609 0.6206 -0.7395
vn -0.2530 0.8918 -0.3750
vn -0.2298 0.9469 -0.2249
vn -0.1487 0.9585 -0.2433
vn -0.1071 0.6587 -0.7448
vn -0.2277 0.6422 -0.7319
vn -0.1701 0.9544 -0.2455
vn 0.1066 0.9914 -0.0754
vn 0.6382 0.7194 -0.2743
vn 0.7016 0.6713 -0.2391
vn 0.0565 0.9956 -0.0743
vn 0.5503 0.5560 -0.6230
vn -0.0810 0.3208 -0.9437
vn 0.0218 0.6165 -0.7871
vn 0.0813 0.3129 -0.9463
vn 0.5699 0.6791 -0.4626
vn 0.2857 0.7783 -0.5592
vn 0.4014 0.7980 -0.4496
vn 0.5633 0.7505 -0.3458
vn 0.0337 0.9972 0.0669
vn 0.0226 0.9931 0.1154
vn 0.5339 0.7867 -0.3101
vn 0.4246 0.7641 -0.4856
vn 0.3399 0.7885 -0.5126
vn 0.4638 0.7761 -0.4272
vn -0.2367 0.2309 -0.9438
vn -0.2512 0.2201 -0.9426
vn -0.2217 0.2722 -0.9363
vn 0.8808 0.3065 -0.3609
vn 0.9003 0.3323 -0.2810
vn -0.1168 0.9678 -0.2229
vn -0.0171 0.9996 0.0233
vn -0.1566 0.9706 0.1826
vn -0.1480 0.9686 0.1999
vn -0.0678 0.9892 0.1299
vn -0.1533 0.9656 0.2098
vn -0.1286 0.9642 0.2319
vn -0.0893 0.9804 0.1759
vn -0.0744 0.9720 0.2228
vn -0.0222 0.9093 0.4155
vn -0.1230 0.9913 -0.0477
vn -0.0707 0.9973 -0.0184
vn -0.0136 0.9998 -0.0155
vn -0.4462 0.8929 0.0597
vn -0.4533 0.8913 0.0052
vn -0.3679 0.9288 0.0446
vn -0.3627 0.9268 0.0971
vn 0.1449 0.9459 0.2903
vn 0.1203 0.9668 0.2256
vn 0.0064 0.9772 0.2123
vn 0.0311 0.9599 0.2784
vn -0.2005 0.9293 0.3101
vn -0.2819 0.9293 0.2387
vn -0.2225 0.9405 0.2568
vn -0.1536 0.9330 0.3253
vn 0.0242 0.9990 -0.0373
vn -0.0116 0.9999 0.0002
vn 0.0865 0.9961 -0.0165
vn 0.1099 0.9926 -0.0523
vn -0.3089 0.9509 0.0169
vn -0.3727 0.9279 -0.0035
vn -0.3905 0.9189 -0.0555
vn -0.3274 0.9444 -0.0306
vn -0.1699 0.9697 0.1753
vn -0.1345 0.9572 0.2564
vn -0.0529 0.9611 0.2710
vn -0.0765 0.9767 0.2003
vn -0.1969 0.9754 0.0993
vn -0.1024 0.9879 0.1167
vn -0.2925 0.9283 -0.2294
vn -0.1911 0.9800 -0.0552
vn -0.2336 0.9694 -0.0758
vn -0.3470 0.9047 -0.2472
vn 0.0739 0.9967 0.0326
vn -0.0370 0.9986 0.0382
vn -0.3394 0.9404 0.0206
vn -0.4216 0.9067 -0.0128
vn 0.0927 0.9877 0.1259
vn 0.1499 0.9834 0.1021
vn 0.1255 0.9918 0.0223
vn -0.0239 0.9922 0.1224
vn -0.3107 0.9342 0.1752
vn -0.3855 0.9111 0.1461
vn -0.0227 0.9327 0.3600
vn -0.0944 0.9385 0.3321
vn 0.0422 0.9619 0.2702
vn -0.0049 0.9974 0.0715
vn -0.0310 0.9281 0.3710
vn -0.0634 0.9463 0.3169
vn 0.0775 0.9286 0.3630
vn 0.0819 0.9086 0.4095
vn 0.0751 0.9476 0.3105
vn -0.0951 0.9620 0.2561
vn 0.1323 0.9142 0.3831
vn 0.1230 0.8947 0.4293
vn -0.0260 0.9993 0.0257
vn -0.1159 0.9843 -0.1334
vn -0.1716 0.9800 -0.1011
vn -0.1935 0.9802 -0.0415
vn 0.0249 0.9941 0.1054
vn -0.0114 0.9981 0.0600
vn -0.2017 0.9795 0.0003
vn -0.1986 0.9801 0.0077
vn -0.1150 0.9737 0.1968
vn 0.0728 0.9628 0.2602
vn 0.0786 0.9216 0.3800
vn 0.0783 0.9404 0.3310
vn -0.0874 0.9897 0.1132
vn -0.1131 0.9818 0.1525
vn -0.1643 0.9697 -0.1811
vn -0.0808 0.9967 -0.0003
vn -0.1179 0.9924 0.0338
vn -0.0939 0.9923 0.0806
vn 0.0625 0.9545 0.2916
vn 0.0773 0.9482 0.3082
vn 0.0779 0.8989 0.4311
vn 0.1333 0.9338 0.3321
vn 0.1533 0.9549 0.2541
vn 0.1589 0.9633 0.2165
vn 0.1304 0.9534 0.2721
vn 0.1422 0.9450 0.2944
vn 0.0883 0.9937 -0.0691
vn 0.1598 0.9826 -0.0948
vn 0.1798 0.9780 -0.1055
vn 0.1317 0.9885 -0.0741
vn 0.1242 0.9918 -0.0305
vn 0.1445 0.9876 -0.0618
vn 0.2012 0.9739 -0.1054
vn 0.2074 0.9717 -0.1131
vn 0.0626 0.9250 0.3747
vn 0.1666 0.9132 0.3719
vn 0.0701 0.9052 0.4192
vn 0.0371 0.9083 0.4167
vn 0.1077 0.9011 0.4199
vn 0.1283 0.8973 0.4223
vn -0.1246 0.9127 0.3892
vn -0.1565 0.9128 0.3773
vn -0.0224 0.9026 0.4299
vn 0.0582 0.8842 0.4635
vn 0.0782 0.8717 0.4837
vn 0.0547 0.8674 0.4945
vn -0.1347 0.8972 0.4205
vn -0.1617 0.8992 0.4065
vn -0.0252 0.8840 0.4668
vn 0.0305 0.8662 0.4988
vn 0.0312 0.8537 0.5199
vn 0.0282 0.8450 0.5339
vn 0.0192 0.9000 0.4356
vn 0.0171 0.8901 0.4555
vn 0.0318 0.8723 0.4879
vn -0.1073 0.9929 0.0512
vn -0.0892 0.9959 0.0162
vn -0.1482 0.9879 0.0466
vn -0.1962 0.9791 0.0543
vn -0.0540 0.9984 -0.0167
vn -0.1037 0.9946 0.0092
vn 0.0304 0.8747 0.4837
vn -0.0067 0.8986 0.4386
vn -0.0066 0.8846 0.4664
vn 0.0059 0.9129 0.4081
vn -0.0454 0.9231 0.3820
vn 0.1843 0.9587 0.2168
vn 0.1996 0.9395 0.2785
vn 0.2240 0.9091 0.3513
vn 0.1654 0.8904 0.4241
vn 0.1463 0.8948 0.4218
vn -0.1263 0.9906 -0.0518
vn -0.0688 0.9973 -0.0259
vn -0.2221 0.9617 -0.1606
vn -0.2739 0.9325 -0.2356
vn -0.3400 0.9392 0.0482
vn -0.3215 0.9398 0.1156
vn -0.2664 0.9420 0.2039
vn -0.1983 0.9382 0.2836
vn -0.1323 0.9296 0.3439
vn -0.2681 0.9630 0.0270
vn -0.3212 0.9468 0.0187
vn -0.3083 0.9197 -0.2431
vn -0.1904 0.9792 -0.0700
vn -0.2655 0.9638 -0.0258
vn -0.0834 0.9087 0.4091
vn -0.0934 0.8959 0.4343
vn -0.7529 0.0005 -0.6581
vn -0.7539 0.1275 -0.6445
vn -0.8505 0.1580 -0.5017
vn -0.8579 0.0008 -0.5137
vn -0.6429 0.0004 -0.7659
vn -0.6478 0.1070 -0.7542
vn -0.5596 0.0004 -0.8287
vn -0.5740 0.1126 -0.8111
vn -0.6204 0.1082 -0.7768
vn -0.6131 0.0004 -0.7900
vn -0.4996 0.0009 -0.8663
vn -0.4948 0.1703 -0.8521
vn -0.4652 0.1284 -0.8759
vn -0.4555 0.0005 -0.8902
vn -0.9542 0.0007 -0.2993
vn -0.9463 0.1479 -0.2876
vn -0.9191 0.1684 -0.3562
vn -0.9314 0.0009 -0.3640
vn -0.2012 0.1712 -0.9645
vn -0.2030 0.0009 -0.9792
vn -0.7766 0.0010 -0.6300
vn -0.7847 0.1771 -0.5940
vn -0.8026 0.1735 -0.5708
vn -0.8102 0.0009 -0.5862
vn -0.4587 0.0010 -0.8886
vn -0.4472 0.1845 -0.8752
vn -0.4131 0.1829 -0.8922
vn -0.4357 0.0010 -0.9001
vn -0.8342 0.0008 -0.5514
vn -0.8313 0.1643 -0.5310
vn -0.9107 0.1495 -0.3851
vn -0.9152 0.0007 -0.4031
vn -0.6171 0.1105 -0.7791
vn -0.6123 0.0004 -0.7907
vn -0.1233 -0.0084 -0.9923
vn -0.1032 0.1584 -0.9820
vn 0.0261 0.2354 -0.9715
vn -0.7602 0.0010 -0.6497
vn -0.7494 0.1696 -0.6400
vn 0.0606 0.9608 0.2707
vn 0.0824 0.9611 0.2635
vn -0.0264 0.9938 0.1081
vn -0.0293 0.9964 0.0800
vn 0.1526 0.9719 0.1793
vn 0.1419 0.9766 0.1617
vn 0.0680 0.9977 0.0013
vn 0.0620 0.9981 -0.0046
vn 0.0356 0.9993 0.0116
vn 0.1359 0.9780 0.1580
vn 0.0958 0.9855 0.1398
vn -0.0102 0.9998 0.0179
vn -0.3853 0.0010 -0.9228
vn -0.3908 0.1754 -0.9036
vn -0.5786 0.1821 -0.7950
vn -0.5689 0.0011 -0.8224
vn -0.6463 0.1821 -0.7411
vn -0.6584 0.0010 -0.7527
vn -0.5809 0.0010 -0.8139
vn -0.5656 0.1857 -0.8035
vn -0.7087 0.1801 -0.6821
vn -0.7162 0.0010 -0.6979
vn -0.1513 0.9841 -0.0926
vn -0.6229 0.6872 -0.3737
vn -0.6078 0.6193 -0.4970
vn -0.5626 0.5565 -0.6114
vn -0.5690 0.5418 -0.6187
vn -0.5246 0.5652 -0.6366
vn -0.3980 0.6297 -0.6672
vn -0.3767 0.6965 -0.6107
vn -0.6827 0.6881 -0.2458
vn -0.7168 0.6738 -0.1796
vn -0.1394 0.7803 -0.6096
vn -0.2212 0.7839 -0.5801
vn -0.2615 0.7649 -0.5887
vn -0.0764 0.9969 0.0189
vn -0.7110 0.6584 -0.2468
vn -0.5885 0.7361 -0.3345
vn 0.2124 0.9418 -0.2606
vn 0.2298 0.9469 -0.2250
vn 0.2764 0.7477 -0.6037
vn 0.2610 0.6171 -0.7423
vn 0.1486 0.9585 -0.2433
vn 0.1701 0.9544 -0.2455
vn 0.2277 0.6423 -0.7319
vn 0.1071 0.6587 -0.7448
vn -0.1065 0.9914 -0.0754
vn -0.1072 0.9855 -0.1312
vn -0.5650 0.7831 -0.2597
vn -0.6382 0.7194 -0.2743
vn -0.5502 0.5561 -0.6229
vn -0.0909 0.7492 -0.6560
vn -0.5700 0.6791 -0.4625
vn -0.4014 0.7980 -0.4496
vn -0.2857 0.7783 -0.5591
vn -0.5633 0.7504 -0.3458
vn -0.5339 0.7866 -0.3101
vn -0.0226 0.9931 0.1153
vn -0.0338 0.9972 0.0668
vn -0.4246 0.7641 -0.4857
vn -0.4638 0.7761 -0.4272
vn -0.3399 0.7884 -0.5126
vn 0.2512 0.2204 -0.9425
vn 0.2366 0.2308 -0.9438
vn 0.2217 0.2723 -0.9363
vn -0.9003 0.3322 -0.2810
vn -0.8808 0.3065 -0.3609
vn 0.0124 0.9700 -0.2428
vn 0.0171 0.9996 0.0233
vn 0.1566 0.9706 0.1826
vn 0.1480 0.9686 0.1999
vn 0.0677 0.9892 0.1299
vn 0.1533 0.9656 0.2098
vn 0.1286 0.9642 0.2319
vn 0.0893 0.9804 0.1759
vn 0.0744 0.9720 0.2228
vn 0.0210 0.9096 0.4150
vn 0.1230 0.9913 -0.0477
vn 0.0708 0.9973 -0.0184
vn 0.0136 0.9998 -0.0155
vt 0.079682 0.718869
vt 0.079152 0.715863
vt 0.089258 0.722540
vt 0.089779 0.725461
vt 0.083732 0.771193
vt 0.080759 0.758299
vt 0.088752 0.761568
vt 0.091502 0.773714
vt 0.048997 0.695609
vt 0.049008 0.693448
vt 0.061977 0.703716
vt 0.062579 0.706678
vt 0.123733 0.769675
vt 0.124238 0.780117
vt 0.115469 0.778982
vt 0.114111 0.768507
vt 0.108070 0.734710
vt 0.116711 0.739623
vt 0.116965 0.741425
vt 0.108643 0.737103
vt 0.079943 0.720113
vt 0.085285 0.745801
vt 0.077157 0.741941
vt 0.071731 0.714336
vt 0.090042 0.726846
vt 0.094193 0.750051
vt 0.128547 0.745206
vt 0.129094 0.746512
vt 0.128526 0.746339
vt 0.128034 0.744968
vt 0.107057 0.777514
vt 0.105041 0.766561
vt 0.098348 0.731013
vt 0.097838 0.728501
vt 0.098992 0.775988
vt 0.109382 0.789529
vt 0.101517 0.788852
vt 0.096841 0.764734
vt 0.071483 0.713096
vt 0.070781 0.709832
vt 0.062810 0.707880
vt 0.068616 0.736548
vt 0.083237 0.638420
vt 0.084476 0.663158
vt 0.084092 0.663577
vt 0.082856 0.638420
vt 0.048990 0.687545
vt 0.048928 0.682846
vt 0.061030 0.691431
vt 0.061292 0.697610
vt 0.069626 0.697412
vt 0.069972 0.703928
vt 0.048835 0.671795
vt 0.060602 0.677151
vt 0.124499 0.731269
vt 0.124231 0.730230
vt 0.124732 0.730741
vt 0.125052 0.731627
vt 0.104763 0.718573
vt 0.104777 0.717793
vt 0.114397 0.724617
vt 0.114521 0.725440
vt 0.078028 0.703098
vt 0.078416 0.709964
vt 0.068445 0.638420
vt 0.068641 0.665306
vt 0.060303 0.663811
vt 0.060112 0.638420
vt 0.088234 0.716709
vt 0.096878 0.722604
vt 0.126360 0.739408
vt 0.126929 0.739717
vt 0.115808 0.733378
vt 0.106930 0.728732
vt 0.080372 0.638420
vt 0.081603 0.665577
vt 0.075911 0.665708
vt 0.074890 0.638420
vt 0.048719 0.660861
vt 0.048404 0.638420
vt 0.069028 0.680946
vt 0.085624 0.693287
vt 0.077257 0.683282
vt 0.083810 0.673888
vt 0.090813 0.683520
vt 0.135723 0.771141
vt 0.140799 0.771513
vt 0.139839 0.781077
vt 0.134882 0.780719
vt 0.116756 0.789893
vt 0.134046 0.790286
vt 0.124517 0.789953
vt 0.138850 0.790351
vt 0.075062 0.767498
vt 0.072280 0.754065
vt 0.058830 0.747927
vt 0.060908 0.760366
vt 0.053242 0.756615
vt 0.047098 0.745158
vt 0.036350 0.685489
vt 0.036263 0.683610
vt 0.036083 0.677090
vt 0.036037 0.673506
vt 0.035998 0.664840
vt 0.035921 0.656252
vt 0.035614 0.638420
vt 0.026367 0.677477
vt 0.026655 0.676345
vt 0.027260 0.670393
vt 0.027064 0.667023
vt 0.026716 0.660702
vt 0.026336 0.653539
vt 0.025641 0.638420
vt 0.042452 0.734326
vt 0.035729 0.716423
vt 0.040252 0.718469
vt 0.098669 0.732313
vt 0.108985 0.738328
vt 0.112127 0.755934
vt 0.102573 0.752817
vt 0.117326 0.742496
vt 0.121698 0.756961
vt 0.026497 0.679161
vt 0.036421 0.686962
vt 0.032425 0.704434
vt 0.055129 0.728515
vt 0.049059 0.697014
vt 0.094505 0.787394
vt 0.087022 0.785267
vt 0.078026 0.781675
vt 0.062707 0.771654
vt 0.057990 0.764158
vt 0.133019 0.755462
vt 0.132666 0.755768
vt 0.128970 0.747557
vt 0.129583 0.747738
vt 0.057944 0.832070
vt 0.061286 0.836137
vt 0.061962 0.837175
vt 0.079807 0.719491
vt 0.089911 0.726131
vt 0.062695 0.707279
vt 0.071608 0.713711
vt 0.049002 0.696328
vt 0.098508 0.731660
vt 0.108817 0.737720
vt 0.128748 0.746969
vt 0.129350 0.747100
vt 0.117118 0.742003
vt 0.036375 0.686233
vt 0.026404 0.678289
vt 0.134142 0.753785
vt 0.136456 0.757014
vt 0.135713 0.758258
vt 0.133401 0.755029
vt 0.130089 0.747665
vt 0.130831 0.746421
vt 0.129790 0.743906
vt 0.130336 0.745182
vt 0.129595 0.746425
vt 0.129049 0.745149
vt 0.126212 0.729947
vt 0.128169 0.738437
vt 0.127428 0.739681
vt 0.125471 0.731191
vt 0.114554 0.721751
vt 0.124704 0.727548
vt 0.124378 0.729341
vt 0.114308 0.723593
vt 0.083640 0.638420
vt 0.084527 0.638420
vt 0.085674 0.662235
vt 0.084831 0.662781
vt 0.087770 0.669809
vt 0.092986 0.676006
vt 0.092534 0.677571
vt 0.087107 0.670927
vt 0.096473 0.684167
vt 0.100201 0.705832
vt 0.099423 0.706681
vt 0.095820 0.685402
vt 0.103428 0.713469
vt 0.105294 0.715277
vt 0.104891 0.716938
vt 0.102857 0.714842
vt 0.130607 0.745776
vt 0.129866 0.747020
vt 0.125037 0.730004
vt 0.125571 0.728486
vt 0.084628 0.666722
vt 0.085015 0.666298
vt 0.085733 0.669162
vt 0.085375 0.669678
vt 0.095124 0.686230
vt 0.095442 0.685817
vt 0.099067 0.707146
vt 0.098744 0.707547
vt 0.099865 0.710005
vt 0.101271 0.713412
vt 0.100934 0.713820
vt 0.099538 0.710410
vt 0.086153 0.665132
vt 0.086761 0.667651
vt 0.086033 0.668594
vt 0.085354 0.665857
vt 0.095063 0.679898
vt 0.094484 0.681269
vt 0.100957 0.708576
vt 0.102247 0.711647
vt 0.101581 0.712818
vt 0.100202 0.709490
vt 0.133177 0.755339
vt 0.135522 0.758656
vt 0.135435 0.759010
vt 0.129839 0.747890
vt 0.128799 0.745370
vt 0.129345 0.746649
vt 0.125244 0.731513
vt 0.127181 0.739894
vt 0.114290 0.724148
vt 0.124281 0.729865
vt 0.084601 0.662973
vt 0.083390 0.638420
vt 0.099205 0.706937
vt 0.095619 0.685710
vt 0.102548 0.715473
vt 0.102683 0.715230
vt 0.104798 0.717443
vt 0.140329 0.781125
vt 0.140545 0.781055
vt 0.139561 0.790302
vt 0.139340 0.790352
vt 0.141899 0.764903
vt 0.142098 0.764835
vt 0.141504 0.771497
vt 0.141285 0.771557
vt 0.137921 0.761514
vt 0.138011 0.761089
vt 0.141676 0.763318
vt 0.141567 0.763710
vt 0.129615 0.747245
vt 0.142381 0.764848
vt 0.142054 0.763950
vt 0.142296 0.763710
vt 0.124869 0.730440
vt 0.085135 0.666093
vt 0.085837 0.668893
vt 0.092408 0.678009
vt 0.092330 0.678282
vt 0.086819 0.671530
vt 0.086925 0.671261
vt 0.094303 0.681610
vt 0.099992 0.709770
vt 0.101392 0.713160
vt 0.140811 0.780854
vt 0.139848 0.790354
vt 0.141788 0.771438
vt 0.138204 0.760684
vt 0.141871 0.762914
vt 0.141838 0.764187
vt 0.094135 0.681726
vt 0.093820 0.682136
vt 0.092116 0.678873
vt 0.102204 0.715887
vt 0.091880 0.689974
vt 0.086468 0.672042
vt 0.095363 0.712713
vt 0.086979 0.709009
vt 0.042598 0.734667
vt 0.141466 0.764595
vt 0.137800 0.762214
vt 0.135314 0.759601
vt 0.079682 0.557971
vt 0.089779 0.551378
vt 0.089258 0.554300
vt 0.079152 0.560977
vt 0.083732 0.505646
vt 0.091502 0.503126
vt 0.088752 0.515272
vt 0.080759 0.518540
vt 0.048997 0.581230
vt 0.062579 0.570161
vt 0.061977 0.573124
vt 0.049008 0.583392
vt 0.123733 0.507164
vt 0.114111 0.508332
vt 0.115469 0.497858
vt 0.124238 0.496722
vt 0.108070 0.542129
vt 0.108643 0.539736
vt 0.116965 0.535414
vt 0.116711 0.537217
vt 0.079943 0.556727
vt 0.071731 0.562504
vt 0.077157 0.534898
vt 0.085285 0.531038
vt 0.090042 0.549994
vt 0.094193 0.526788
vt 0.128547 0.531634
vt 0.128034 0.531871
vt 0.128526 0.530501
vt 0.129094 0.530327
vt 0.107057 0.499326
vt 0.105041 0.510279
vt 0.097838 0.548339
vt 0.098348 0.545826
vt 0.098992 0.500851
vt 0.101517 0.487987
vt 0.109382 0.487311
vt 0.096841 0.512105
vt 0.070781 0.567008
vt 0.071483 0.563743
vt 0.068616 0.540291
vt 0.062810 0.568960
vt 0.084092 0.613263
vt 0.084476 0.613681
vt 0.048990 0.589295
vt 0.061292 0.579229
vt 0.061030 0.585408
vt 0.048928 0.593994
vt 0.069626 0.579427
vt 0.069972 0.572911
vt 0.060602 0.599689
vt 0.048835 0.605045
vt 0.124499 0.545570
vt 0.125052 0.545212
vt 0.124732 0.546099
vt 0.124231 0.546609
vt 0.104763 0.558267
vt 0.114521 0.551400
vt 0.114397 0.552222
vt 0.104777 0.559046
vt 0.078416 0.566876
vt 0.078028 0.573742
vt 0.060303 0.613029
vt 0.068641 0.611534
vt 0.096878 0.554235
vt 0.088234 0.560130
vt 0.126929 0.537122
vt 0.126360 0.537431
vt 0.115808 0.543461
vt 0.106930 0.548107
vt 0.081603 0.611263
vt 0.075911 0.611131
vt 0.048719 0.615978
vt 0.069028 0.595894
vt 0.085624 0.583553
vt 0.090813 0.593320
vt 0.083810 0.602952
vt 0.077257 0.593557
vt 0.135723 0.505698
vt 0.134882 0.496120
vt 0.139839 0.495763
vt 0.140799 0.505326
vt 0.116756 0.486947
vt 0.124517 0.486886
vt 0.134046 0.486554
vt 0.138850 0.486489
vt 0.072280 0.522775
vt 0.075062 0.509341
vt 0.058830 0.528912
vt 0.047098 0.531681
vt 0.053242 0.520224
vt 0.060908 0.516473
vt 0.036263 0.593229
vt 0.036350 0.591351
vt 0.036083 0.599750
vt 0.036037 0.603333
vt 0.035998 0.612000
vt 0.035921 0.620587
vt 0.026655 0.600495
vt 0.026367 0.599362
vt 0.027260 0.606447
vt 0.027064 0.609816
vt 0.026716 0.616137
vt 0.026336 0.623300
vt 0.042452 0.542513
vt 0.040252 0.558370
vt 0.035729 0.560416
vt 0.102573 0.524023
vt 0.112127 0.520905
vt 0.108985 0.538511
vt 0.098669 0.544527
vt 0.121698 0.519879
vt 0.117326 0.534344
vt 0.032425 0.572405
vt 0.036423 0.589885
vt 0.026497 0.597679
vt 0.055129 0.548324
vt 0.049059 0.579825
vt 0.094505 0.489446
vt 0.087022 0.491572
vt 0.078026 0.495164
vt 0.062707 0.505185
vt 0.057990 0.512681
vt 0.128970 0.529282
vt 0.132666 0.521072
vt 0.133019 0.521378
vt 0.129583 0.529102
vt 0.089911 0.550708
vt 0.079807 0.557348
vt 0.071608 0.563128
vt 0.062695 0.569560
vt 0.049002 0.580512
vt 0.108817 0.539119
vt 0.098508 0.545180
vt 0.129350 0.529739
vt 0.128748 0.529870
vt 0.117118 0.534836
vt 0.036375 0.590606
vt 0.026404 0.598550
vt 0.134142 0.523055
vt 0.133401 0.521811
vt 0.135713 0.518581
vt 0.136456 0.519826
vt 0.130831 0.530419
vt 0.130089 0.529174
vt 0.129790 0.532934
vt 0.129049 0.531690
vt 0.129595 0.530414
vt 0.130336 0.531658
vt 0.126212 0.546893
vt 0.125471 0.545649
vt 0.127428 0.537158
vt 0.128169 0.538402
vt 0.114554 0.555089
vt 0.114308 0.553246
vt 0.124378 0.547499
vt 0.124704 0.549292
vt 0.084831 0.614059
vt 0.085674 0.614604
vt 0.087770 0.607030
vt 0.087107 0.605913
vt 0.092534 0.599269
vt 0.092986 0.600834
vt 0.096473 0.592673
vt 0.095820 0.591438
vt 0.099423 0.570159
vt 0.100201 0.571007
vt 0.103428 0.563371
vt 0.102857 0.561998
vt 0.104891 0.559902
vt 0.105294 0.561563
vt 0.129866 0.529819
vt 0.130607 0.531063
vt 0.143140 0.514217
vt 0.142296 0.513129
vt 0.142381 0.511991
vt 0.125571 0.548353
vt 0.125037 0.546835
vt 0.084628 0.610117
vt 0.085375 0.607161
vt 0.085733 0.607677
vt 0.085015 0.610541
vt 0.095124 0.590609
vt 0.098744 0.569293
vt 0.099067 0.569693
vt 0.095442 0.591023
vt 0.099865 0.566835
vt 0.099538 0.566429
vt 0.100934 0.563019
vt 0.101271 0.563428
vt 0.086153 0.611707
vt 0.085354 0.610982
vt 0.086033 0.608246
vt 0.086761 0.609188
vt 0.094484 0.595571
vt 0.095063 0.596942
vt 0.100957 0.568264
vt 0.100202 0.567349
vt 0.101581 0.564022
vt 0.102247 0.565192
vt 0.135435 0.517829
vt 0.135522 0.518184
vt 0.133177 0.521500
vt 0.129839 0.528949
vt 0.129345 0.530190
vt 0.128799 0.531470
vt 0.127181 0.536945
vt 0.125244 0.545326
vt 0.124281 0.546975
vt 0.114290 0.552692
vt 0.084601 0.613867
vt 0.099205 0.569902
vt 0.095619 0.591129
vt 0.102548 0.561367
vt 0.104798 0.559396
vt 0.102683 0.561609
vt 0.140329 0.495714
vt 0.139340 0.486488
vt 0.139561 0.486538
vt 0.140545 0.495784
vt 0.141899 0.511936
vt 0.141285 0.505283
vt 0.141504 0.505342
vt 0.142098 0.512005
vt 0.137921 0.515325
vt 0.141567 0.513130
vt 0.141676 0.513521
vt 0.138011 0.515750
vt 0.129615 0.529595
vt 0.142054 0.512890
vt 0.124869 0.546399
vt 0.085837 0.607946
vt 0.085135 0.610747
vt 0.092408 0.598830
vt 0.086925 0.605578
vt 0.086819 0.605309
vt 0.092330 0.598557
vt 0.094303 0.595229
vt 0.101392 0.563679
vt 0.099992 0.567069
vt 0.139848 0.486486
vt 0.140811 0.495985
vt 0.141788 0.505402
vt 0.141871 0.513925
vt 0.138204 0.516156
vt 0.141838 0.512653
vt 0.094135 0.595114
vt 0.093820 0.594703
vt 0.092116 0.597967
vt 0.102204 0.560953
vt 0.091880 0.586866
vt 0.086468 0.604797
vt 0.095363 0.564127
vt 0.086979 0.567831
vt 0.042604 0.542160
vt 0.141466 0.512245
vt 0.137800 0.514626
vt 0.135314 0.517238
s 1
g off
usemtl clearcoat
f 3/1/1 4/2/2 1/3/3
f 1/3/3 2/4/4 3/1/1
f 7/5/5 8/6/6 5/7/7
f 5/7/7 6/8/8 7/5/5
f 11/9/9 12/10/10 9/11/11
f 9/11/11 10/12/12 11/9/9
f 15/13/13 16/14/14 13/15/15
f 13/15/15 14/16/16 15/13/13
f 19/17/17 20/18/18 17/19/19
f 17/19/19 18/20/20 19/17/17
f 21/21/21 22/22/22 23/23/23
f 23/23/23 24/24/24 21/21/21
f 25/25/25 26/26/26 22/22/22
f 22/22/22 21/21/21 25/25/25
f 29/27/27 30/28/28 27/29/29
f 27/29/29 28/30/30 29/27/27
f 31/31/31 32/32/32 14/16/16
f 14/16/16 13/15/15 31/31/31
f 19/17/17 18/20/20 33/33/33
f 33/33/33 34/34/34 19/17/17
f 37/35/35 31/31/31 35/36/36
f 35/36/36 36/37/37 37/35/35
f 37/35/35 38/38/38 32/32/32
f 32/32/32 31/31/31 37/35/35
f 34/34/34 33/33/33 2/4/4
f 2/4/4 1/3/3 34/34/34
f 4/2/2 3/1/1 39/39/39
f 39/39/39 40/40/40 4/2/2
f 41/41/41 24/24/24 23/23/23
f 23/23/23 42/42/42 41/41/41
f 40/40/40 39/39/39 10/12/12
f 10/12/12 9/11/11 40/40/40
f 37/35/35 6/8/8 5/7/7
f 5/7/7 38/38/38 37/35/35
f 44/43/43 45/44/44 46/45/45
f 46/45/45 43/46/46 44/43/43
f 49/47/47 50/48/48 47/49/49
f 47/49/49 48/50/50 49/47/47
f 51/51/51 52/52/52 48/50/50
f 48/50/50 47/49/49 51/51/51
f 50/48/48 54/53/53 53/54/54
f 53/54/54 47/49/49 50/48/48
f 57/55/55 58/56/56 55/57/57
f 55/57/57 56/58/58 57/55/55
f 61/59/59 62/60/60 59/61/61
f 59/61/61 60/62/62 61/59/59
f 52/52/52 51/51/51 63/63/63
f 63/63/63 64/64/64 52/52/52
f 66/65/65 67/66/66 68/67/67
f 68/67/67 65/68/68 66/65/65
f 4/2/2 40/40/40 52/52/52
f 52/52/52 64/64/64 4/2/2
f 34/34/34 1/3/3 69/69/69
f 69/69/69 70/70/70 34/34/34
f 4/2/2 64/64/64 69/69/69
f 69/69/69 1/3/3 4/2/2
f 48/50/50 9/11/11 12/10/10
f 12/10/10 49/47/47 48/50/50
f 29/27/27 28/30/30 72/71/71
f 72/71/71 71/72/72 29/27/27
f 74/73/73 20/18/18 19/17/17
f 19/17/17 73/74/74 74/73/73
f 73/74/74 19/17/17 34/34/34
f 34/34/34 70/70/70 73/74/74
f 52/52/52 40/40/40 9/11/11
f 9/11/11 48/50/50 52/52/52
f 76/75/75 77/76/76 78/77/77
f 78/77/77 75/78/78 76/75/75
f 68/67/67 79/79/79 80/80/80
f 80/80/80 65/68/68 68/67/67
f 47/49/49 53/54/54 81/81/81
f 81/81/81 51/51/51 47/49/49
f 82/82/82 83/83/83 84/84/84
f 84/84/84 85/85/85 82/82/82
f 78/77/77 77/76/76 84/84/84
f 84/84/84 83/83/83 78/77/77
f 88/86/86 89/87/87 86/88/88
f 86/88/88 87/89/89 88/86/86
f 13/15/15 90/90/90 35/36/36
f 35/36/36 31/31/31 13/15/15
f 87/89/89 92/91/91 91/92/92
f 91/92/92 16/14/14 87/89/89
f 93/93/93 92/91/91 87/89/89
f 87/89/89 86/88/88 93/93/93
f 8/6/6 7/5/5 94/94/94
f 94/94/94 95/95/95 8/6/6
f 91/92/92 90/90/90 13/15/15
f 13/15/15 16/14/14 91/92/92
f 98/96/96 99/97/97 96/98/98
f 96/98/98 97/99/99 98/96/96
f 12/10/10 11/9/9 100/100/100
f 100/100/100 101/101/101 12/10/10
f 102/102/102 49/47/47 12/10/10
f 12/10/10 101/101/101 102/102/102
f 50/48/48 49/47/47 102/102/102
f 102/102/102 103/103/103 50/48/48
f 54/53/53 50/48/48 103/103/103
f 103/103/103 104/104/104 54/53/53
f 79/79/79 54/53/53 104/104/104
f 104/104/104 105/105/105 79/79/79
f 105/105/105 106/106/106 80/80/80
f 80/80/80 79/79/79 105/105/105
f 101/101/101 100/100/100 107/107/107
f 107/107/107 108/108/108 101/101/101
f 108/108/108 109/109/109 102/102/102
f 102/102/102 101/101/101 108/108/108
f 103/103/103 102/102/102 109/109/109
f 109/109/109 110/110/110 103/103/103
f 104/104/104 103/103/103 110/110/110
f 110/110/110 111/111/111 104/104/104
f 105/105/105 104/104/104 111/111/111
f 111/111/111 112/112/112 105/105/105
f 112/112/112 113/113/113 106/106/106
f 106/106/106 105/105/105 112/112/112
f 94/94/94 99/97/97 98/96/96
f 98/96/96 95/95/95 94/94/94
f 118/114/114 119/115/115 120/116/116
f 121/117/117 122/118/118 123/119/119
f 123/119/119 124/120/120 121/117/117
f 125/121/121 126/122/122 123/119/119
f 123/119/119 122/118/118 125/121/121
f 121/117/117 124/120/120 26/26/26
f 26/26/26 25/25/25 121/117/117
f 127/123/123 128/124/124 129/125/125
f 131/126/126 120/116/116 128/124/124
f 128/124/124 130/127/127 131/126/126
f 41/41/41 42/42/42 131/126/126
f 131/126/126 130/127/127 41/41/41
f 16/14/14 15/13/13 88/86/86
f 88/86/86 87/89/89 16/14/14
f 42/42/42 95/95/95 98/96/96
f 98/96/96 131/126/126 42/42/42
f 23/23/23 8/6/6 95/95/95
f 95/95/95 42/42/42 23/23/23
f 22/22/22 5/7/7 8/6/6
f 8/6/6 23/23/23 22/22/22
f 26/26/26 38/38/38 5/7/7
f 5/7/7 22/22/22 26/26/26
f 124/120/120 32/32/32 38/38/38
f 38/38/38 26/26/26 124/120/120
f 123/119/119 14/16/16 32/32/32
f 32/32/32 124/120/120 123/119/119
f 37/35/35 36/37/37 132/128/128
f 132/128/128 6/8/8 37/35/35
f 133/129/129 7/5/5 6/8/8
f 6/8/8 132/128/128 133/129/129
f 134/130/130 94/94/94 7/5/5
f 7/5/5 133/129/129 134/130/130
f 135/131/131 99/97/97 94/94/94
f 94/94/94 134/130/130 135/131/131
f 99/97/97 136/132/132 96/98/98
f 126/122/122 15/13/13 14/16/16
f 14/16/16 123/119/119 126/122/122
f 138/133/133 139/134/134 140/135/135
f 140/135/135 137/136/136 138/133/133
f 142/137/137 141/138/137 143/139/137
f 21/21/21 146/140/138 145/141/139
f 145/141/139 25/25/25 21/21/21
f 41/41/41 148/142/140 147/143/141
f 147/143/141 24/24/24 41/41/41
f 10/12/12 148/142/140 149/144/142
f 149/144/142 11/9/9 10/12/12
f 24/24/24 147/143/141 146/140/138
f 146/140/138 21/21/21 24/24/24
f 121/117/117 151/145/143 150/146/144
f 150/146/144 122/118/118 121/117/117
f 140/135/135 153/147/145 152/148/146
f 152/148/146 137/136/136 140/135/135
f 122/118/118 150/146/144 154/149/147
f 154/149/147 125/121/121 122/118/118
f 25/25/25 145/141/139 151/145/143
f 151/145/143 121/117/117 25/25/25
f 11/9/9 149/144/142 155/150/148
f 155/150/148 100/100/100 11/9/9
f 144/151/149 107/107/107 100/100/100
f 100/100/100 155/150/148 144/151/149
f 146/140/138 3/1/1 2/4/4
f 2/4/4 145/141/139 146/140/138
f 148/142/140 10/12/12 39/39/39
f 39/39/39 147/143/141 148/142/140
f 148/142/140 41/41/41 130/127/127
f 130/127/127 149/144/142 148/142/140
f 147/143/141 39/39/39 3/1/1
f 3/1/1 146/140/138 147/143/141
f 151/145/143 33/33/33 18/20/20
f 18/20/20 150/146/144 151/145/143
f 153/147/145 27/29/29 30/28/28
f 30/28/28 152/148/146 153/147/145
f 150/146/144 18/20/20 17/19/19
f 17/19/19 154/149/147 150/146/144
f 145/141/139 2/4/4 33/33/33
f 33/33/33 151/145/143 145/141/139
f 149/144/142 130/127/127 128/124/124
f 128/124/124 155/150/148 149/144/142
f 155/150/148 128/124/124 127/123/123
f 127/123/123 144/151/149 155/150/148
f 159/152/150 160/153/151 157/154/152
f 157/154/152 158/155/153 159/152/150
f 161/156/154 162/157/155 159/152/150
f 159/152/150 158/155/153 161/156/154
f 165/158/156 166/159/157 163/160/158
f 163/160/158 164/161/159 165/158/156
f 169/162/160 170/163/161 167/164/162
f 167/164/162 168/165/163 169/162/160
f 173/166/164 174/167/165 171/168/166
f 171/168/166 172/169/167 173/166/164
f 175/170/168 176/171/169 177/172/170
f 177/172/170 178/173/171 175/170/168
f 181/174/172 182/175/173 179/176/174
f 179/176/174 180/177/175 181/174/172
f 185/178/176 186/179/177 183/180/178
f 183/180/178 184/181/179 185/178/176
f 189/182/180 190/183/181 187/184/182
f 187/184/182 188/185/183 189/182/180
f 190/183/181 173/166/164 172/169/167
f 172/169/167 187/184/182 190/183/181
f 167/164/162 170/163/161 165/158/156
f 165/158/156 164/161/159 167/164/162
f 166/159/157 194/186/184 193/187/185
f 193/187/185 163/160/158 166/159/157
f 194/186/184 162/157/155 161/156/154
f 161/156/154 193/187/185 194/186/184
f 168/165/163 197/188/186 196/189/187
f 196/189/187 169/162/160 168/165/163
f 197/188/186 171/168/166 174/167/165
f 174/167/165 196/189/187 197/188/186
f 200/190/188 201/191/189 198/192/190
f 198/192/190 199/193/191 200/190/188
f 204/194/192 205/195/193 202/196/194
f 202/196/194 203/197/195 204/194/192
f 208/198/196 209/199/197 206/200/198
f 206/200/198 207/201/199 208/198/196
f 212/202/200 213/203/201 210/204/202
f 210/204/202 211/205/203 212/202/200
f 182/175/173 215/206/204 214/207/205
f 214/207/205 179/176/174 182/175/173
f 218/208/206 219/209/207 216/210/208
f 216/210/208 217/211/209 218/208/206
f 138/133/133 222/212/210 220/213/211
f 220/213/211 221/214/212 138/133/133
f 222/212/210 138/133/133 137/136/136
f 137/136/136 223/215/213 222/212/210
f 29/27/27 225/216/214 224/217/215
f 224/217/215 30/28/28 29/27/27
f 56/58/58 227/218/216 226/219/217
f 226/219/217 71/72/72 56/58/58
f 59/61/61 229/220/218 228/221/219
f 228/221/219 58/56/56 59/61/61
f 231/222/220 45/44/44 44/43/43
f 44/43/43 230/223/221 231/222/220
f 233/224/222 202/196/194 205/195/193
f 205/195/193 232/225/223 233/224/222
f 235/226/224 236/227/225 234/228/226
f 234/228/226 62/60/60 235/226/224
f 62/60/60 234/228/226 229/220/218
f 229/220/218 59/61/61 62/60/60
f 29/27/27 71/72/72 226/219/217
f 226/219/217 225/216/214 29/27/27
f 239/229/227 240/230/228 237/231/229
f 237/231/229 238/232/230 239/229/227
f 243/233/231 244/234/232 241/235/233
f 241/235/233 242/236/234 243/233/231
f 242/236/234 241/235/233 240/230/228
f 240/230/228 239/229/227 242/236/234
f 247/237/235 248/238/236 245/239/237
f 245/239/237 246/240/238 247/237/235
f 30/28/28 224/217/215 249/241/239
f 249/241/239 152/148/146 30/28/28
f 152/148/146 249/241/239 223/215/213
f 223/215/213 137/136/136 152/148/146
f 117/242/240 244/234/232 250/243/241
f 250/243/241 195/244/242 117/242/240
f 168/165/163 227/218/216 251/245/243
f 251/245/243 197/188/186 168/165/163
f 197/188/186 251/245/243 228/221/219
f 228/221/219 171/168/166 197/188/186
f 201/191/189 253/246/244 252/247/245
f 252/247/245 198/192/190 201/191/189
f 256/248/246 257/249/247 254/250/248
f 254/250/248 255/251/249 256/248/246
f 214/207/205 258/252/250 256/248/246
f 256/248/246 179/176/174 214/207/205
f 208/198/196 260/253/251 259/254/252
f 259/254/252 209/199/197 208/198/196
f 222/212/210 158/155/153 157/154/152
f 157/154/152 220/213/211 222/212/210
f 222/212/210 223/215/213 161/156/154
f 161/156/154 158/155/153 222/212/210
f 225/216/214 164/161/159 163/160/158
f 163/160/158 224/217/215 225/216/214
f 227/218/216 168/165/163 167/164/162
f 167/164/162 226/219/217 227/218/216
f 229/220/218 172/169/167 171/168/166
f 171/168/166 228/221/219 229/220/218
f 175/170/168 178/173/171 231/222/220
f 231/222/220 230/223/221 175/170/168
f 183/180/178 233/224/222 232/225/223
f 232/225/223 184/181/179 183/180/178
f 236/227/225 188/185/183 187/184/182
f 187/184/182 234/228/226 236/227/225
f 234/228/226 187/184/182 172/169/167
f 172/169/167 229/220/218 234/228/226
f 164/161/159 225/216/214 226/219/217
f 226/219/217 167/164/162 164/161/159
f 240/230/228 115/255/253 114/256/254
f 244/234/232 117/242/240 116/257/255
f 116/257/255 241/235/233 244/234/232
f 241/235/233 116/257/255 115/255/253
f 115/255/253 240/230/228 241/235/233
f 248/238/236 192/258/256 191/259/257
f 191/259/257 245/239/237 248/238/236
f 224/217/215 163/160/158 193/187/185
f 193/187/185 249/241/239 224/217/215
f 249/241/239 193/187/185 161/156/154
f 161/156/154 223/215/213 249/241/239
f 244/234/232 243/233/231 261/260/258
f 261/260/258 250/243/241 244/234/232
f 227/218/216 56/58/58 55/57/57
f 55/57/57 251/245/243 227/218/216
f 251/245/243 55/57/57 58/56/56
f 58/56/56 228/221/219 251/245/243
f 253/246/244 211/205/203 210/204/202
f 210/204/202 252/247/245 253/246/244
f 179/176/174 256/248/246 255/251/249
f 255/251/249 180/177/175 179/176/174
f 257/249/247 256/248/246 258/252/250
f 258/252/250 262/261/259 257/249/247
f 260/253/251 217/211/209 216/210/208
f 216/210/208 259/254/252 260/253/251
f 263/262/260 264/263/261 257/249/247
f 257/249/247 262/261/259 263/262/260
f 72/71/71 57/55/55 56/58/58
f 56/58/58 71/72/72 72/71/71
f 73/74/74 61/59/59 60/62/62
f 60/62/62 74/73/73 73/74/74
f 61/59/59 265/264/262 235/226/224
f 235/226/224 62/60/60 61/59/59
f 85/85/85 263/262/260 204/194/192
f 204/194/192 266/265/263 85/85/85
f 263/262/260 85/85/85 264/263/261
f 257/249/247 264/263/261 267/266/264
f 267/266/264 254/250/248 257/249/247
f 264/263/261 85/85/85 84/84/84
f 84/84/84 267/266/264 264/263/261
f 84/84/84 77/76/76 200/190/188
f 200/190/188 199/193/191 84/84/84
f 76/75/75 43/46/46 46/45/45
f 46/45/45 77/76/76 76/75/75
f 268/267/265 207/201/199 206/200/198
f 206/200/198 70/70/70 268/267/265
f 269/268/266 69/69/69 64/64/64
f 64/64/64 63/63/63 269/268/266
f 82/82/82 269/268/266 63/63/63
f 63/63/63 83/83/83 82/82/82
f 83/83/83 63/63/63 51/51/51
f 51/51/51 81/81/81 83/83/83
f 75/78/78 78/77/77 67/66/66
f 67/66/66 66/65/65 75/78/78
f 98/96/96 156/269/267 118/114/114
f 118/114/114 120/116/116 131/126/126
f 98/96/96 118/114/114 131/126/126
f 270/270/268 246/240/238 261/260/258
f 261/260/258 243/233/231 270/270/268
f 239/229/227 86/88/88 89/87/87
f 89/87/87 242/236/234 239/229/227
f 238/232/230 93/93/93 86/88/88
f 86/88/88 239/229/227 238/232/230
f 54/53/53 79/79/79 68/67/67
f 68/67/67 53/54/54 54/53/53
f 67/66/66 81/81/81 53/54/54
f 53/54/54 68/67/67 67/66/66
f 81/81/81 67/66/66 78/77/77
f 78/77/77 83/83/83 81/81/81
f 270/270/268 243/233/231 242/236/234
f 242/236/234 89/87/87 270/270/268
f 89/87/87 88/86/86 271/271/269
f 271/271/269 270/270/268 89/87/87
f 153/147/145 140/135/135 125/121/121
f 125/121/121 154/149/147 153/147/145
f 27/29/29 153/147/145 154/149/147
f 154/149/147 17/19/19 27/29/29
f 28/30/30 27/29/29 17/19/19
f 17/19/19 20/18/18 28/30/30
f 20/18/18 74/73/73 72/71/71
f 72/71/71 28/30/30 20/18/18
f 57/55/55 72/71/71 74/73/73
f 74/73/73 60/62/62 57/55/55
f 58/56/56 57/55/55 60/62/62
f 60/62/62 59/61/61 58/56/56
f 272/272/270 139/134/134 138/133/133
f 138/133/133 221/214/212 272/272/270
f 271/271/269 247/237/235 246/240/238
f 246/240/238 270/270/268 271/271/269
f 192/258/256 157/154/152 160/153/151
f 220/213/211 248/238/236 247/237/235
f 247/237/235 221/214/212 220/213/211
f 157/154/152 192/258/256 248/238/236
f 248/238/236 220/213/211 157/154/152
f 271/271/269 272/272/270 221/214/212
f 221/214/212 247/237/235 271/271/269
f 140/135/135 139/134/134 126/122/122
f 126/122/122 125/121/121 140/135/135
f 272/272/270 88/86/86 15/13/13
f 15/13/13 126/122/122 272/272/270
f 272/272/270 271/271/269 88/86/86
f 139/134/134 272/272/270 126/122/122
f 120/116/116 119/115/115 129/125/125
f 73/74/74 70/70/70 265/264/262
f 265/264/262 61/59/59 73/74/74
f 85/85/85 266/265/263 82/82/82
f 99/97/97 135/131/131 136/132/132
f 204/194/192 263/262/260 262/261/259
f 262/261/259 205/195/193 204/194/192
f 215/206/204 185/178/176 184/181/179
f 184/181/179 214/207/205 215/206/204
f 205/195/193 262/261/259 258/252/250
f 258/252/250 232/225/223 205/195/193
f 232/225/223 258/252/250 214/207/205
f 214/207/205 184/181/179 232/225/223
f 203/197/195 268/267/265 266/265/263
f 266/265/263 204/194/192 203/197/195
f 266/265/263 268/267/265 269/268/266
f 269/268/266 82/82/82 266/265/263
f 69/69/69 269/268/266 268/267/265
f 268/267/265 70/70/70 69/69/69
f 188/185/183 216/210/208 219/209/207
f 219/209/207 189/182/180 188/185/183
f 202/196/194 208/198/196 207/201/199
f 207/201/199 203/197/195 202/196/194
f 209/199/197 235/226/224 265/264/262
f 265/264/262 206/200/198 209/199/197
f 217/211/209 183/180/178 186/179/177
f 186/179/177 218/208/206 217/211/209
f 233/224/222 260/253/251 208/198/196
f 208/198/196 202/196/194 233/224/222
f 235/226/224 209/199/197 259/254/252
f 259/254/252 236/227/225 235/226/224
f 216/210/208 188/185/183 236/227/225
f 236/227/225 259/254/252 216/210/208
f 260/253/251 233/224/222 183/180/178
f 183/180/178 217/211/209 260/253/251
f 203/197/195 207/201/199 268/267/265
f 70/70/70 206/200/198 265/264/262
f 45/44/44 201/191/189 200/190/188
f 200/190/188 46/45/45 45/44/44
f 180/177/175 210/204/202 213/203/201
f 213/203/201 181/174/172 180/177/175
f 211/205/203 178/173/171 177/172/170
f 177/172/170 212/202/200 211/205/203
f 252/247/245 255/251/249 254/250/248
f 254/250/248 198/192/190 252/247/245
f 201/191/189 45/44/44 231/222/220
f 231/222/220 253/246/244 201/191/189
f 210/204/202 180/177/175 255/251/249
f 255/251/249 252/247/245 210/204/202
f 253/246/244 231/222/220 178/173/171
f 178/173/171 211/205/203 253/246/244
f 267/266/264 199/193/191 198/192/190
f 198/192/190 254/250/248 267/266/264
f 84/84/84 199/193/191 267/266/264
f 77/76/76 46/45/45 200/190/188
f 275/273/271 276/274/272 273/275/273
f 273/275/273 274/276/274 275/273/271
f 279/277/275 280/278/276 277/279/277
f 277/279/277 278/280/278 279/277/275
f 283/281/279 284/282/280 281/283/281
f 281/283/281 282/284/282 283/281/279
f 287/285/283 288/286/284 285/287/285
f 285/287/285 286/288/286 287/285/283
f 291/289/287 292/290/288 289/291/289
f 289/291/289 290/292/290 291/289/287
f 293/293/291 294/294/292 295/295/293
f 295/295/293 296/296/294 293/293/291
f 297/297/295 293/293/291 296/296/294
f 296/296/294 298/298/296 297/297/295
f 301/299/297 302/300/298 299/301/299
f 299/301/299 300/302/300 301/299/297
f 304/303/301 285/287/285 288/286/284
f 288/286/284 303/304/302 304/303/301
f 291/289/287 306/305/303 305/306/304
f 305/306/304 292/290/288 291/289/287
f 308/307/305 309/308/306 307/309/307
f 307/309/307 304/303/301 308/307/305
f 308/307/305 304/303/301 303/304/302
f 303/304/302 310/310/308 308/307/305
f 306/305/303 273/275/273 276/274/272
f 276/274/272 305/306/304 306/305/303
f 274/276/274 312/311/309 311/312/310
f 311/312/310 275/273/271 274/276/274
f 313/313/311 295/295/293 294/294/292
f 294/294/292 314/314/312 313/313/311
f 312/311/309 281/283/281 284/282/280
f 284/282/280 311/312/310 312/311/309
f 308/307/305 310/310/308 277/279/277
f 277/279/277 280/278/276 308/307/305
f 315/315/313 316/316/314 44/43/43
f 44/43/43 43/46/46 315/315/313
f 319/317/315 320/318/316 317/319/317
f 317/319/317 318/320/318 319/317/315
f 322/321/319 317/319/317 320/318/316
f 320/318/316 321/322/320 322/321/319
f 318/320/318 317/319/317 323/323/321
f 323/323/321 324/324/322 318/320/318
f 327/325/323 328/326/324 325/327/325
f 325/327/325 326/328/326 327/325/323
f 331/329/327 332/330/328 329/331/329
f 329/331/329 330/332/330 331/329/327
f 321/322/320 334/333/331 333/334/332
f 333/334/332 322/321/319 321/322/320
f 335/335/333 336/336/334 66/65/65
f 66/65/65 65/68/68 335/335/333
f 334/333/331 321/322/320 312/311/309
f 312/311/309 274/276/274 334/333/331
f 337/337/335 338/338/336 273/275/273
f 273/275/273 306/305/303 337/337/335
f 338/338/336 334/333/331 274/276/274
f 274/276/274 273/275/273 338/338/336
f 320/318/316 319/317/315 282/284/282
f 282/284/282 281/283/281 320/318/316
f 339/339/337 340/340/338 302/300/298
f 302/300/298 301/299/297 339/339/337
f 291/289/287 290/292/290 341/341/339
f 341/341/339 342/342/340 291/289/287
f 306/305/303 291/289/287 342/342/340
f 342/342/340 337/337/335 306/305/303
f 281/283/281 312/311/309 321/322/320
f 321/322/320 320/318/316 281/283/281
f 344/343/341 76/75/75 75/78/78
f 75/78/78 343/344/342 344/343/341
f 65/68/68 80/80/80 345/345/343
f 345/345/343 335/335/333 65/68/68
f 317/319/317 322/321/319 346/346/344
f 346/346/344 323/323/321 317/319/317
f 347/347/345 348/348/346 349/349/347
f 349/349/347 350/350/348 347/347/345
f 343/344/342 350/350/348 349/349/347
f 349/349/347 344/343/341 343/344/342
f 353/351/349 354/352/350 351/353/351
f 351/353/351 352/354/352 353/351/349
f 285/287/285 304/303/301 307/309/307
f 307/309/307 355/355/353 285/287/285
f 354/352/350 286/288/286 356/356/354
f 356/356/354 357/357/355 354/352/350
f 358/358/356 351/353/351 354/352/350
f 354/352/350 357/357/355 358/358/356
f 278/280/278 360/359/357 359/360/358
f 359/360/358 279/277/275 278/280/278
f 356/356/354 286/288/286 285/287/285
f 285/287/285 355/355/353 356/356/354
f 363/361/359 364/362/360 361/363/361
f 361/363/361 362/364/362 363/361/359
f 282/284/282 366/365/363 365/366/364
f 365/366/364 283/281/279 282/284/282
f 366/365/363 282/284/282 319/317/315
f 319/317/315 367/367/365 366/365/363
f 318/320/318 368/368/366 367/367/365
f 367/367/365 319/317/315 318/320/318
f 324/324/322 369/369/367 368/368/366
f 368/368/366 318/320/318 324/324/322
f 345/345/343 370/370/368 369/369/367
f 369/369/367 324/324/322 345/345/343
f 370/370/368 345/345/343 80/80/80
f 80/80/80 106/106/106 370/370/368
f 366/365/363 372/371/369 371/372/370
f 371/372/370 365/366/364 366/365/363
f 372/371/369 366/365/363 367/367/365
f 367/367/365 373/373/371 372/371/369
f 368/368/366 374/374/372 373/373/371
f 373/373/371 367/367/365 368/368/366
f 369/369/367 375/375/373 374/374/372
f 374/374/372 368/368/366 369/369/367
f 370/370/368 376/376/374 375/375/373
f 375/375/373 369/369/367 370/370/368
f 106/106/106 113/113/113 376/376/374
f 376/376/374 370/370/368 106/106/106
f 359/360/358 360/359/357 363/361/359
f 363/361/359 362/364/362 359/360/358
f 381/377/375 382/378/376 383/379/377
f 384/380/378 385/381/379 386/382/380
f 386/382/380 387/383/381 384/380/378
f 388/384/382 389/385/383 386/382/380
f 386/382/380 385/381/379 388/384/382
f 298/298/296 384/380/378 387/383/381
f 387/383/381 297/297/295 298/298/296
f 390/386/384 391/387/385 392/388/386
f 382/378/376 393/389/387 394/390/388
f 394/390/388 391/387/385 382/378/376
f 393/389/387 313/313/311 314/314/312
f 314/314/312 394/390/388 393/389/387
f 286/288/286 354/352/350 353/351/349
f 353/351/349 287/285/283 286/288/286
f 313/313/311 393/389/387 363/361/359
f 363/361/359 360/359/357 313/313/311
f 295/295/293 313/313/311 360/359/357
f 360/359/357 278/280/278 295/295/293
f 296/296/294 295/295/293 278/280/278
f 278/280/278 277/279/277 296/296/294
f 298/298/296 296/296/294 277/279/277
f 277/279/277 310/310/308 298/298/296
f 384/380/378 298/298/296 310/310/308
f 310/310/308 303/304/302 384/380/378
f 385/381/379 384/380/378 303/304/302
f 303/304/302 288/286/284 385/381/379
f 308/307/305 280/278/276 395/391/389
f 395/391/389 309/308/306 308/307/305
f 396/392/390 395/391/389 280/278/276
f 280/278/276 279/277/275 396/392/390
f 397/393/391 396/392/390 279/277/275
f 279/277/275 359/360/358 397/393/391
f 398/394/392 397/393/391 359/360/358
f 359/360/358 362/364/362 398/394/392
f 362/364/362 361/363/361 399/395/393
f 388/384/382 385/381/379 288/286/284
f 288/286/284 287/285/283 388/384/382
f 401/396/394 402/397/395 403/398/396
f 403/398/396 400/399/397 401/396/394
f 293/293/291 297/297/295 405/400/398
f 405/400/398 406/401/399 293/293/291
f 314/314/312 294/294/292 407/402/400
f 407/402/400 408/403/401 314/314/312
f 284/282/280 283/281/279 409/404/402
f 409/404/402 408/403/401 284/282/280
f 294/294/292 293/293/291 406/401/399
f 406/401/399 407/402/400 294/294/292
f 387/383/381 386/382/380 410/405/403
f 410/405/403 411/406/404 387/383/381
f 401/396/394 400/399/397 412/407/405
f 412/407/405 413/408/406 401/396/394
f 386/382/380 389/385/383 414/409/407
f 414/409/407 410/405/403 386/382/380
f 297/297/295 387/383/381 411/406/404
f 411/406/404 405/400/398 297/297/295
f 283/281/279 365/366/364 415/410/408
f 415/410/408 409/404/402 283/281/279
f 404/411/409 415/410/408 365/366/364
f 365/366/364 371/372/370 404/411/409
f 406/401/399 405/400/398 276/274/272
f 276/274/272 275/273/271 406/401/399
f 408/403/401 407/402/400 311/312/310
f 311/312/310 284/282/280 408/403/401
f 408/403/401 409/404/402 394/390/388
f 394/390/388 314/314/312 408/403/401
f 407/402/400 406/401/399 275/273/271
f 275/273/271 311/312/310 407/402/400
f 411/406/404 410/405/403 292/290/288
f 292/290/288 305/306/304 411/406/404
f 413/408/406 412/407/405 300/302/300
f 300/302/300 299/301/299 413/408/406
f 410/405/403 414/409/407 289/291/289
f 289/291/289 292/290/288 410/405/403
f 405/400/398 411/406/404 305/306/304
f 305/306/304 276/274/272 405/400/398
f 409/404/402 415/410/408 391/387/385
f 391/387/385 394/390/388 409/404/402
f 415/410/408 404/411/409 392/388/386
f 392/388/386 391/387/385 415/410/408
f 419/412/410 420/413/411 417/414/412
f 417/414/412 418/415/413 419/412/410
f 420/413/411 419/412/410 421/416/414
f 421/416/414 422/417/415 420/413/411
f 425/418/416 426/419/417 423/420/418
f 423/420/418 424/421/419 425/418/416
f 429/422/420 430/423/421 427/424/422
f 427/424/422 428/425/423 429/422/420
f 433/426/424 434/427/425 431/428/426
f 431/428/426 432/429/427 433/426/424
f 435/430/428 436/431/429 176/171/169
f 176/171/169 175/170/168 435/430/428
f 439/432/430 440/433/431 437/434/432
f 437/434/432 438/435/433 439/432/430
f 443/436/434 444/437/435 441/438/436
f 441/438/436 442/439/437 443/436/434
f 447/440/438 448/441/439 445/442/440
f 445/442/440 446/443/441 447/440/438
f 446/443/441 445/442/440 434/427/425
f 434/427/425 433/426/424 446/443/441
f 426/419/417 425/418/416 428/425/423
f 428/425/423 427/424/422 426/419/417
f 424/421/419 423/420/418 451/444/442
f 451/444/442 452/445/443 424/421/419
f 452/445/443 451/444/442 422/417/415
f 422/417/415 421/416/414 452/445/443
f 454/446/444 453/447/445 380/448/446
f 430/423/421 429/422/420 455/449/447
f 455/449/447 456/450/448 430/423/421
f 456/450/448 455/449/447 432/429/427
f 432/429/427 431/428/426 456/450/448
f 459/451/449 460/452/450 457/453/451
f 457/453/451 458/454/452 459/451/449
f 463/455/453 464/456/454 461/457/455
f 461/457/455 462/458/456 463/455/453
f 467/459/457 468/460/458 465/461/459
f 465/461/459 466/462/460 467/459/457
f 471/463/461 472/464/462 469/465/463
f 469/465/463 470/466/464 471/463/461
f 438/435/433 437/434/432 473/467/465
f 473/467/465 474/468/466 438/435/433
f 477/469/467 478/470/468 475/471/469
f 475/471/469 476/472/470 477/469/467
f 403/398/396 481/473/471 479/474/472
f 479/474/472 480/475/473 403/398/396
f 482/476/474 400/399/397 403/398/396
f 403/398/396 480/475/473 482/476/474
f 301/299/297 300/302/300 483/477/475
f 483/477/475 484/478/476 301/299/297
f 328/326/324 339/339/337 485/479/477
f 485/479/477 486/480/478 328/326/324
f 329/331/329 326/328/326 487/481/479
f 487/481/479 488/482/480 329/331/329
f 44/43/43 316/316/314 489/483/481
f 489/483/481 230/223/221 44/43/43
f 490/484/482 491/485/483 462/458/456
f 462/458/456 461/457/455 490/484/482
f 494/486/484 330/332/330 492/487/485
f 492/487/485 493/488/486 494/486/484
f 330/332/330 329/331/329 488/482/480
f 488/482/480 492/487/485 330/332/330
f 339/339/337 301/299/297 484/478/476
f 484/478/476 485/479/477 339/339/337
f 497/489/487 498/490/488 495/491/489
f 495/491/489 496/492/490 497/489/487
f 501/493/491 502/494/492 499/495/493
f 499/495/493 500/496/494 501/493/491
f 502/494/492 497/489/487 496/492/490
f 496/492/490 499/495/493 502/494/492
f 505/497/495 506/498/496 503/499/497
f 503/499/497 504/500/498 505/497/495
f 300/302/300 412/407/405 507/501/499
f 507/501/499 483/477/475 300/302/300
f 412/407/405 400/399/397 482/476/474
f 482/476/474 507/501/499 412/407/405
f 380/448/446 453/447/445 508/502/500
f 508/502/500 500/496/494 380/448/446
f 430/423/421 456/450/448 509/503/501
f 509/503/501 486/480/478 430/423/421
f 456/450/448 431/428/426 487/481/479
f 487/481/479 509/503/501 456/450/448
f 458/454/452 457/453/451 510/504/502
f 510/504/502 511/505/503 458/454/452
f 514/506/504 515/507/505 512/508/506
f 512/508/506 513/509/507 514/506/504
f 473/467/465 437/434/432 514/506/504
f 514/506/504 516/510/508 473/467/465
f 467/459/457 466/462/460 517/511/509
f 517/511/509 518/512/510 467/459/457
f 480/475/473 479/474/472 417/414/412
f 417/414/412 420/413/411 480/475/473
f 422/417/415 482/476/474 480/475/473
f 480/475/473 420/413/411 422/417/415
f 484/478/476 483/477/475 423/420/418
f 423/420/418 426/419/417 484/478/476
f 486/480/478 485/479/477 427/424/422
f 427/424/422 430/423/421 486/480/478
f 488/482/480 487/481/479 431/428/426
f 431/428/426 434/427/425 488/482/480
f 230/223/221 489/483/481 435/430/428
f 435/430/428 175/170/168 230/223/221
f 441/438/436 444/437/435 491/485/483
f 491/485/483 490/484/482 441/438/436
f 493/488/486 492/487/485 445/442/440
f 445/442/440 448/441/439 493/488/486
f 492/487/485 488/482/480 434/427/425
f 434/427/425 445/442/440 492/487/485
f 485/479/477 484/478/476 426/419/417
f 426/419/417 427/424/422 485/479/477
f 496/492/490 495/491/489 377/513/511
f 377/513/511 378/514/512 496/492/490
f 500/496/494 499/495/493 379/515/513
f 379/515/513 380/448/446 500/496/494
f 499/495/493 496/492/490 378/514/512
f 378/514/512 379/515/513 499/495/493
f 504/500/498 503/499/497 449/516/514
f 449/516/514 450/517/515 504/500/498
f 483/477/475 507/501/499 451/444/442
f 451/444/442 423/420/418 483/477/475
f 507/501/499 482/476/474 422/417/415
f 422/417/415 451/444/442 507/501/499
f 500/496/494 508/502/500 519/518/516
f 519/518/516 501/493/491 500/496/494
f 508/502/500 503/499/497 506/498/496
f 506/498/496 519/518/516 508/502/500
f 486/480/478 509/503/501 325/327/325
f 325/327/325 328/326/324 486/480/478
f 509/503/501 487/481/479 326/328/326
f 326/328/326 325/327/325 509/503/501
f 511/505/503 510/504/502 469/465/463
f 469/465/463 472/464/462 511/505/503
f 437/434/432 440/433/431 515/507/505
f 515/507/505 514/506/504 437/434/432
f 513/509/507 520/519/517 516/510/508
f 516/510/508 514/506/504 513/509/507
f 518/512/510 517/511/509 475/471/469
f 475/471/469 478/470/468 518/512/510
f 522/520/518 520/519/517 513/509/507
f 513/509/507 521/521/519 522/520/518
f 340/340/338 339/339/337 328/326/324
f 328/326/324 327/325/323 340/340/338
f 342/342/340 341/341/339 332/330/328
f 332/330/328 331/329/327 342/342/340
f 331/329/327 330/332/330 494/486/484
f 494/486/484 523/522/520 331/329/327
f 348/348/346 524/523/521 463/455/453
f 463/455/453 522/520/518 348/348/346
f 522/520/518 521/521/519 348/348/346
f 513/509/507 512/508/506 525/524/522
f 525/524/522 521/521/519 513/509/507
f 521/521/519 525/524/522 349/349/347
f 349/349/347 348/348/346 521/521/519
f 349/349/347 460/452/450 459/451/449
f 459/451/449 344/343/341 349/349/347
f 344/343/341 315/315/313 43/46/46
f 43/46/46 76/75/75 344/343/341
f 526/525/523 337/337/335 465/461/459
f 465/461/459 468/460/458 526/525/523
f 527/526/524 333/334/332 334/333/331
f 334/333/331 338/338/336 527/526/524
f 347/347/345 350/350/348 333/334/332
f 333/334/332 527/526/524 347/347/345
f 350/350/348 346/346/344 322/321/319
f 322/321/319 333/334/332 350/350/348
f 336/336/334 343/344/342 75/78/78
f 75/78/78 66/65/65 336/336/334
f 363/361/359 416/527/525 364/362/360
f 528/528/526 501/493/491 519/518/516
f 519/518/516 506/498/496 528/528/526
f 497/489/487 502/494/492 352/354/352
f 352/354/352 351/353/351 497/489/487
f 498/490/488 497/489/487 351/353/351
f 351/353/351 358/358/356 498/490/488
f 324/324/322 323/323/321 335/335/333
f 335/335/333 345/345/343 324/324/322
f 336/336/334 335/335/333 323/323/321
f 323/323/321 346/346/344 336/336/334
f 346/346/344 350/350/348 343/344/342
f 343/344/342 336/336/334 346/346/344
f 528/528/526 352/354/352 502/494/492
f 502/494/492 501/493/491 528/528/526
f 352/354/352 528/528/526 529/529/527
f 529/529/527 353/351/349 352/354/352
f 413/408/406 414/409/407 389/385/383
f 389/385/383 401/396/394 413/408/406
f 299/301/299 289/291/289 414/409/407
f 414/409/407 413/408/406 299/301/299
f 302/300/298 290/292/290 289/291/289
f 289/291/289 299/301/299 302/300/298
f 290/292/290 302/300/298 340/340/338
f 340/340/338 341/341/339 290/292/290
f 327/325/323 332/330/328 341/341/339
f 341/341/339 340/340/338 327/325/323
f 326/328/326 329/331/329 332/330/328
f 332/330/328 327/325/323 326/328/326
f 530/530/528 481/473/471 403/398/396
f 403/398/396 402/397/395 530/530/528
f 529/529/527 528/528/526 506/498/496
f 506/498/496 505/497/495 529/529/527
f 418/415/413 417/414/412 450/517/515
f 479/474/472 481/473/471 505/497/495
f 505/497/495 504/500/498 479/474/472
f 417/414/412 479/474/472 504/500/498
f 504/500/498 450/517/515 417/414/412
f 529/529/527 505/497/495 481/473/471
f 481/473/471 530/530/528 529/529/527
f 388/384/382 402/397/395 401/396/394
f 401/396/394 389/385/383 388/384/382
f 530/530/528 388/384/382 287/285/283
f 287/285/283 353/351/349 530/530/528
f 530/530/528 353/351/349 529/529/527
f 402/397/395 388/384/382 530/530/528
f 382/378/376 390/386/384 383/379/377
f 342/342/340 331/329/327 523/522/520
f 523/522/520 337/337/335 342/342/340
f 348/348/346 347/347/345 524/523/521
f 362/364/362 399/395/393 398/394/392
f 463/455/453 462/458/456 520/519/517
f 520/519/517 522/520/518 463/455/453
f 474/468/466 473/467/465 444/437/435
f 444/437/435 443/436/434 474/468/466
f 462/458/456 491/485/483 516/510/508
f 516/510/508 520/519/517 462/458/456
f 491/485/483 444/437/435 473/467/465
f 473/467/465 516/510/508 491/485/483
f 464/456/454 463/455/453 524/523/521
f 524/523/521 526/525/523 464/456/454
f 524/523/521 347/347/345 527/526/524
f 527/526/524 526/525/523 524/523/521
f 338/338/336 337/337/335 526/525/523
f 526/525/523 527/526/524 338/338/336
f 448/441/439 447/440/438 476/472/470
f 476/472/470 475/471/469 448/441/439
f 461/457/455 464/456/454 468/460/458
f 468/460/458 467/459/457 461/457/455
f 466/462/460 465/461/459 523/522/520
f 523/522/520 494/486/484 466/462/460
f 478/470/468 477/469/467 442/439/437
f 442/439/437 441/438/436 478/470/468
f 490/484/482 461/457/455 467/459/457
f 467/459/457 518/512/510 490/484/482
f 494/486/484 493/488/486 517/511/509
f 517/511/509 466/462/460 494/486/484
f 475/471/469 517/511/509 493/488/486
f 493/488/486 448/441/439 475/471/469
f 518/512/510 478/470/468 441/438/436
f 441/438/436 490/484/482 518/512/510
f 464/456/454 526/525/523 468/460/458
f 337/337/335 523/522/520 465/461/459
f 316/316/314 315/315/313 459/451/449
f 459/451/449 458/454/452 316/316/314
f 440/433/431 439/432/430 470/466/464
f 470/466/464 469/465/463 440/433/431
f 472/464/462 471/463/461 436/431/429
f 436/431/429 435/430/428 472/464/462
f 510/504/502 457/453/451 512/508/506
f 512/508/506 515/507/505 510/504/502
f 458/454/452 511/505/503 489/483/481
f 489/483/481 316/316/314 458/454/452
f 469/465/463 510/504/502 515/507/505
f 515/507/505 440/433/431 469/465/463
f 511/505/503 472/464/462 435/430/428
f 435/430/428 489/483/481 511/505/503
f 525/524/522 512/508/506 457/453/451
f 457/453/451 460/452/450 525/524/522
f 349/349/347 525/524/522 460/452/450
f 344/343/341 459/451/449 315/315/313
f 120/116/116 129/125/125 128/124/124
f 391/387/385 390/386/384 382/378/376
f 393/389/387 382/378/376 381/377/375
f 363/361/359 393/389/387 381/377/375
f 98/96/96 97/99/99 156/269/267
